<svg width="357" height="64" viewBox="0 0 357 64" fill="none" xmlns="http://www.w3.org/2000/svg">
<path d="M340.114 50.6669V22.3033H346.595V27.0306H346.891C347.408 25.3932 348.294 24.1314 349.55 23.245C350.818 22.3464 352.264 21.897 353.889 21.897C354.259 21.897 354.671 21.9155 355.127 21.9524C355.595 21.9771 355.982 22.0201 356.29 22.0817V28.2308C356.007 28.1324 355.558 28.0462 354.942 27.9723C354.339 27.8861 353.754 27.8431 353.188 27.8431C351.969 27.8431 350.873 28.1077 349.901 28.6371C348.941 29.1541 348.184 29.8743 347.63 30.7976C347.076 31.7209 346.799 32.7858 346.799 33.9922V50.6669H340.114Z" fill="white"/>
<path d="M321.537 51.2394C319.739 51.2394 318.12 50.9193 316.68 50.2792C315.252 49.6267 314.12 48.6665 313.282 47.3985C312.458 46.1305 312.045 44.5671 312.045 42.7082C312.045 41.1078 312.341 39.7844 312.932 38.738C313.522 37.6916 314.329 36.8545 315.351 36.2266C316.372 35.5988 317.523 35.1248 318.804 34.8048C320.096 34.4724 321.432 34.2323 322.811 34.0846C324.473 33.9123 325.821 33.7584 326.855 33.623C327.889 33.4752 328.64 33.2536 329.108 32.9582C329.588 32.6504 329.828 32.1765 329.828 31.5363V31.4255C329.828 30.0344 329.415 28.9572 328.591 28.194C327.766 27.4307 326.578 27.0491 325.027 27.0491C323.389 27.0491 322.091 27.4061 321.13 28.1201C320.183 28.8341 319.542 29.6774 319.21 30.6499L312.968 29.7636C313.461 28.0401 314.273 26.5998 315.406 25.4426C316.539 24.273 317.924 23.399 319.561 22.8204C321.198 22.2295 323.008 21.934 324.99 21.934C326.356 21.934 327.717 22.0941 329.071 22.4141C330.425 22.7342 331.662 23.2636 332.782 24.0022C333.903 24.7285 334.801 25.7195 335.478 26.9752C336.168 28.2309 336.513 29.8005 336.513 31.684V50.667H330.086V46.7707H329.865C329.459 47.5586 328.886 48.2972 328.147 48.9866C327.421 49.6637 326.504 50.2115 325.396 50.6301C324.3 51.0363 323.014 51.2394 321.537 51.2394ZM323.272 46.3275C324.614 46.3275 325.778 46.0628 326.763 45.5335C327.747 44.9918 328.504 44.2778 329.034 43.3914C329.576 42.5051 329.846 41.5387 329.846 40.4923V37.1499C329.637 37.3223 329.28 37.4823 328.775 37.6301C328.283 37.7778 327.729 37.907 327.113 38.0178C326.498 38.1286 325.888 38.2271 325.285 38.3133C324.682 38.3995 324.159 38.4733 323.716 38.5349C322.719 38.6703 321.826 38.8919 321.038 39.1997C320.25 39.5074 319.629 39.9383 319.173 40.4923C318.718 41.0339 318.49 41.7356 318.49 42.5974C318.49 43.8284 318.939 44.7579 319.838 45.3857C320.736 46.0136 321.881 46.3275 323.272 46.3275Z" fill="white"/>
<path d="M309.621 12.8484V50.6666H302.936V12.8484H309.621Z" fill="white"/>
<path d="M299.182 12.8484V50.6666H292.498V12.8484H299.182Z" fill="white"/>
<path d="M276.353 51.221C273.583 51.221 271.183 50.6116 269.151 49.3928C267.12 48.1741 265.544 46.4691 264.424 44.2778C263.316 42.0865 262.762 39.5259 262.762 36.596C262.762 33.666 263.316 31.0993 264.424 28.8957C265.544 26.6921 267.12 24.9809 269.151 23.7622C271.183 22.5434 273.583 21.934 276.353 21.934C279.123 21.934 281.524 22.5434 283.555 23.7622C285.586 24.9809 287.156 26.6921 288.264 28.8957C289.384 31.0993 289.944 33.666 289.944 36.596C289.944 39.5259 289.384 42.0865 288.264 44.2778C287.156 46.4691 285.586 48.1741 283.555 49.3928C281.524 50.6116 279.123 51.221 276.353 51.221ZM276.39 45.8659C277.892 45.8659 279.148 45.4535 280.157 44.6286C281.167 43.7915 281.918 42.6713 282.41 41.2678C282.915 39.8644 283.167 38.301 283.167 36.5775C283.167 34.8417 282.915 33.2721 282.41 31.8687C281.918 30.453 281.167 29.3266 280.157 28.4894C279.148 27.6523 277.892 27.2338 276.39 27.2338C274.851 27.2338 273.571 27.6523 272.549 28.4894C271.54 29.3266 270.783 30.453 270.278 31.8687C269.785 33.2721 269.539 34.8417 269.539 36.5775C269.539 38.301 269.785 39.8644 270.278 41.2678C270.783 42.6713 271.54 43.7915 272.549 44.6286C273.571 45.4535 274.851 45.8659 276.39 45.8659Z" fill="white"/>
<path d="M242.532 50.6666H229.716V12.8484H242.79C246.545 12.8484 249.77 13.6055 252.466 15.1197C255.175 16.6216 257.255 18.7821 258.708 21.6012C260.161 24.4204 260.887 27.7935 260.887 31.7206C260.887 35.66 260.154 39.0454 258.689 41.8768C257.237 44.7083 255.138 46.8811 252.393 48.3953C249.66 49.9095 246.373 50.6666 242.532 50.6666ZM236.567 44.739H242.199C244.834 44.739 247.031 44.2589 248.792 43.2987C250.552 42.3262 251.875 40.8797 252.762 38.9592C253.648 37.0264 254.091 34.6136 254.091 31.7206C254.091 28.8276 253.648 26.427 252.762 24.5189C251.875 22.5984 250.564 21.1642 248.829 20.2163C247.105 19.2561 244.963 18.776 242.402 18.776H236.567V44.739Z" fill="white"/>
<path d="M215.889 12.8484V50.6666H209.204V12.8484H215.889Z" fill="white"/>
<path d="M190.627 51.2394C188.829 51.2394 187.211 50.9193 185.77 50.2792C184.342 49.6267 183.21 48.6665 182.373 47.3985C181.548 46.1305 181.135 44.5671 181.135 42.7082C181.135 41.1078 181.431 39.7844 182.022 38.738C182.613 37.6916 183.419 36.8545 184.441 36.2266C185.462 35.5988 186.614 35.1248 187.894 34.8048C189.186 34.4724 190.522 34.2323 191.901 34.0846C193.563 33.9123 194.911 33.7584 195.945 33.623C196.979 33.4752 197.73 33.2536 198.198 32.9582C198.678 32.6504 198.918 32.1765 198.918 31.5363V31.4255C198.918 30.0344 198.506 28.9572 197.681 28.194C196.856 27.4307 195.668 27.0491 194.117 27.0491C192.48 27.0491 191.181 27.4061 190.221 28.1201C189.273 28.8341 188.632 29.6774 188.3 30.6499L182.059 29.7636C182.551 28.0401 183.364 26.5998 184.496 25.4426C185.629 24.273 187.014 23.399 188.651 22.8204C190.288 22.2295 192.098 21.934 194.08 21.934C195.446 21.934 196.807 22.0941 198.161 22.4141C199.515 22.7342 200.752 23.2636 201.873 24.0022C202.993 24.7285 203.891 25.7195 204.569 26.9752C205.258 28.2309 205.603 29.8005 205.603 31.684V50.667H199.177V46.7707H198.955C198.549 47.5586 197.976 48.2972 197.238 48.9866C196.511 49.6637 195.594 50.2115 194.486 50.6301C193.391 51.0363 192.104 51.2394 190.627 51.2394ZM192.363 46.3275C193.704 46.3275 194.868 46.0628 195.853 45.5335C196.837 44.9918 197.595 44.2778 198.124 43.3914C198.666 42.5051 198.936 41.5387 198.936 40.4923V37.1499C198.727 37.3223 198.37 37.4823 197.865 37.6301C197.373 37.7778 196.819 37.907 196.204 38.0178C195.588 38.1286 194.979 38.2271 194.375 38.3133C193.772 38.3995 193.249 38.4733 192.806 38.5349C191.809 38.6703 190.916 38.8919 190.128 39.1997C189.34 39.5074 188.719 39.9383 188.263 40.4923C187.808 41.0339 187.58 41.7356 187.58 42.5974C187.58 43.8284 188.029 44.7579 188.928 45.3857C189.827 46.0136 190.971 46.3275 192.363 46.3275Z" fill="white"/>
<path d="M179.994 22.3034V27.4738H163.688V22.3034H179.994ZM167.714 15.5079H174.399V42.1358C174.399 43.0345 174.534 43.7238 174.805 44.204C175.088 44.6718 175.457 44.9918 175.913 45.1642C176.368 45.3365 176.873 45.4227 177.427 45.4227C177.846 45.4227 178.227 45.3919 178.572 45.3304C178.929 45.2688 179.2 45.2134 179.384 45.1642L180.511 50.39C180.154 50.5131 179.643 50.6486 178.978 50.7963C178.326 50.944 177.525 51.0302 176.578 51.0548C174.903 51.1041 173.395 50.8517 172.053 50.2977C170.712 49.7314 169.647 48.8574 168.859 47.6756C168.083 46.4937 167.702 45.0165 167.714 43.2437V15.5079Z" fill="white"/>
<path d="M150.683 51.221C147.839 51.221 145.383 50.6301 143.315 49.4482C141.259 48.2541 139.677 46.5676 138.569 44.3886C137.462 42.1973 136.908 39.6182 136.908 36.6514C136.908 33.7338 137.462 31.1731 138.569 28.9695C139.69 26.7536 141.253 25.0302 143.26 23.7991C145.266 22.5557 147.624 21.934 150.332 21.934C152.08 21.934 153.73 22.2172 155.281 22.7835C156.845 23.3374 158.223 24.1992 159.418 25.3687C160.624 26.5382 161.572 28.0278 162.261 29.8374C162.951 31.6348 163.295 33.7768 163.295 36.2636V38.3133H140.047V33.8076H156.888C156.875 32.5273 156.598 31.3886 156.057 30.3914C155.515 29.382 154.758 28.5879 153.785 28.0093C152.825 27.4307 151.705 27.1414 150.425 27.1414C149.058 27.1414 147.858 27.4738 146.824 28.1386C145.79 28.791 144.983 29.6528 144.405 30.7238C143.838 31.7825 143.549 32.9459 143.537 34.2139V38.1471C143.537 39.7967 143.838 41.2124 144.442 42.3943C145.045 43.5638 145.888 44.4624 146.971 45.0903C148.055 45.7058 149.323 46.0136 150.775 46.0136C151.748 46.0136 152.628 45.8782 153.416 45.6073C154.204 45.3242 154.887 44.9118 155.466 44.3701C156.044 43.8285 156.481 43.1575 156.777 42.3573L163.018 43.059C162.624 44.7087 161.873 46.149 160.766 47.3801C159.67 48.5988 158.266 49.5467 156.555 50.2238C154.844 50.8886 152.887 51.221 150.683 51.221Z" fill="white"/>
<path d="M94.4168 12.8483H102.8L114.028 40.2517H114.471L125.698 12.8483H134.082V50.6665H127.508V24.685H127.157L116.705 50.5557H111.793L101.342 24.6296H100.991V50.6665H94.4168V12.8483Z" fill="white"/>
<circle cx="32.0001" cy="32.0001" r="32.0001" fill="black"/>
<circle cx="32.0001" cy="32.0001" r="32.0001" fill="url(#paint0_linear_4422_3242)"/>
<path d="M31.8277 46.2814C26.1227 46.2814 22.4662 44.0033 21.3558 40.9785C21.1643 40.4807 21.0495 39.9447 21.0495 39.4278C21.0495 37.8963 22.1024 36.8816 23.5957 36.8816C24.7826 36.8816 25.5675 37.3411 26.2567 38.5663C27.1565 40.6722 29.3198 41.6294 31.9617 41.6294C35.063 41.6294 37.1689 40.1361 37.1689 38.1069C37.1689 36.2882 35.8671 35.2544 32.402 34.546L29.4729 33.9717C23.9594 32.8805 21.2601 30.2386 21.2601 26.1226C21.2601 21.0685 25.6632 17.7183 31.8085 17.7183C36.8626 17.7183 40.6723 19.8433 41.8975 23.4424C42.0315 23.8253 42.1081 24.2273 42.1081 24.7251C42.1081 26.1035 41.1126 27.0415 39.6385 27.0415C38.3367 27.0415 37.5326 26.5246 36.8817 25.3377C35.9628 23.251 34.1824 22.3895 31.8085 22.3895C28.956 22.3895 27.0608 23.7296 27.0608 25.7589C27.0608 27.4627 28.3817 28.5156 31.6554 29.1665L34.5653 29.76C40.4234 30.9278 42.9504 33.2825 42.9504 37.4751C42.9504 42.8738 38.7196 46.2814 31.8277 46.2814Z" fill="white"/>
<path d="M29.1666 15.9443C29.1666 15.4227 29.5895 14.9998 30.1111 14.9998C30.6327 14.9998 31.0555 15.4227 31.0555 15.9443V48.0555C31.0555 48.5771 30.6327 48.9999 30.1111 48.9999C29.5895 48.9999 29.1666 48.5771 29.1666 48.0555V15.9443Z" fill="white"/>
<path d="M32.9444 15.9443C32.9444 15.4227 33.3672 14.9998 33.8889 14.9998C34.4105 14.9998 34.8333 15.4227 34.8333 15.9443V48.0555C34.8333 48.5771 34.4105 48.9999 33.8889 48.9999C33.3672 48.9999 32.9444 48.5771 32.9444 48.0555V15.9443Z" fill="white"/>
<path d="M58.0001 32.0001C58.0001 17.6406 46.3595 6.00002 32 6.00002C17.6406 6.00002 5.99996 17.6406 5.99996 32.0001C5.99996 46.3595 17.6406 58.0001 32 58.0001C46.3595 58.0001 58.0001 46.3595 58.0001 32.0001ZM60.0001 32.0001C60.0001 47.4641 47.464 60.0001 32 60.0001C16.536 60.0001 3.99995 47.4641 3.99995 32.0001C3.99996 16.5361 16.536 4.00002 32 4.00002C47.464 4.00002 60.0001 16.5361 60.0001 32.0001Z" fill="url(#paint1_linear_4422_3242)"/>
<defs>
<linearGradient id="paint0_linear_4422_3242" x1="32.0001" y1="0" x2="32.0001" y2="64.0001" gradientUnits="userSpaceOnUse">
<stop stop-color="#142C57"/>
<stop offset="1" stop-color="#17243C" stop-opacity="0"/>
</linearGradient>
<linearGradient id="paint1_linear_4422_3242" x1="4.99996" y1="32.0012" x2="59.0001" y2="32.0012" gradientUnits="userSpaceOnUse">
<stop stop-color="#7013C5"/>
<stop offset="0.35" stop-color="#7330D7"/>
<stop offset="0.5" stop-color="#7543E3"/>
<stop offset="0.65" stop-color="#F94E6C"/>
<stop offset="0.75" stop-color="#FC9237"/>
<stop offset="0.85" stop-color="#FFD305"/>
<stop offset="1" stop-color="#20BF55"/>
</linearGradient>
</defs>
</svg>
