<svg width="208" height="48" viewBox="0 0 208 48" fill="none" xmlns="http://www.w3.org/2000/svg">
<path d="M73.1746 32.5006C73.0675 31.5503 72.6258 30.8142 71.8495 30.2922C71.0732 29.7635 70.0961 29.4991 68.9182 29.4991C68.075 29.4991 67.3455 29.633 66.7298 29.9007C66.1142 30.1617 65.6356 30.523 65.2943 30.9848C64.9597 31.4399 64.7924 31.9586 64.7924 32.5408C64.7924 33.0293 64.9062 33.4509 65.1337 33.8056C65.368 34.1603 65.6725 34.4581 66.0472 34.6991C66.4287 34.9333 66.8369 35.1307 67.2719 35.2913C67.7069 35.4453 68.1252 35.5724 68.5267 35.6728L70.5344 36.1948C71.1903 36.3554 71.8629 36.5729 72.5522 36.8473C73.2415 37.1217 73.8806 37.4831 74.4695 37.9315C75.0585 38.3799 75.5336 38.9353 75.895 39.5979C76.2631 40.2604 76.4471 41.0534 76.4471 41.977C76.4471 43.1415 76.146 44.1754 75.5437 45.0789C74.948 45.9823 74.0814 46.6951 72.9437 47.2171C71.8127 47.7391 70.4441 48.0001 68.8379 48.0001C67.2987 48.0001 65.9669 47.7558 64.8426 47.2673C63.7183 46.7787 62.8383 46.0861 62.2025 45.1893C61.5667 44.2858 61.2154 43.2151 61.1484 41.977H64.2604C64.3206 42.7198 64.5615 43.3389 64.9831 43.8341C65.4115 44.3226 65.9569 44.6874 66.6194 44.9283C67.2887 45.1625 68.0215 45.2796 68.8179 45.2796C69.6946 45.2796 70.4742 45.1425 71.1568 44.8681C71.8461 44.587 72.3882 44.1988 72.7831 43.7036C73.1779 43.2017 73.3753 42.6161 73.3753 41.9469C73.3753 41.3379 73.2013 40.8393 72.8533 40.4511C72.512 40.063 72.0469 39.7417 71.458 39.4874C70.8757 39.2331 70.2166 39.0089 69.4804 38.8149L67.0511 38.1523C65.4048 37.7039 64.0998 37.0447 63.1361 36.1747C62.1791 35.3047 61.7006 34.1536 61.7006 32.7215C61.7006 31.5369 62.0218 30.503 62.6643 29.6196C63.3067 28.7362 64.1767 28.0502 65.2743 27.5617C66.3718 27.0665 67.6099 26.8188 68.9885 26.8188C70.3805 26.8188 71.6086 27.0631 72.6726 27.5516C73.7434 28.0402 74.5866 28.7128 75.2023 29.5694C75.818 30.4193 76.1393 31.3964 76.166 32.5006H73.1746Z" fill="white"/>
<path d="M85.145 47.97C83.6258 47.97 82.3175 47.6454 81.2199 46.9962C80.1291 46.3404 79.2858 45.4202 78.6902 44.2356C78.1013 43.0444 77.8068 41.6491 77.8068 40.0496C77.8068 38.4702 78.1013 37.0782 78.6902 35.8736C79.2858 34.669 80.1157 33.7287 81.1798 33.0528C82.2505 32.3768 83.502 32.0389 84.9342 32.0389C85.8042 32.0389 86.6474 32.1827 87.4639 32.4705C88.2803 32.7583 89.0131 33.21 89.6623 33.8257C90.3115 34.4414 90.8234 35.2411 91.1982 36.2249C91.573 37.202 91.7604 38.3899 91.7604 39.7886V40.8527H79.5033V38.604H88.8191C88.8191 37.8143 88.6585 37.115 88.3372 36.506C88.016 35.8903 87.5643 35.4051 86.982 35.0504C86.4065 34.6957 85.7306 34.5184 84.9542 34.5184C84.111 34.5184 83.3749 34.7258 82.7458 35.1408C82.1234 35.549 81.6415 36.0844 81.3002 36.7469C80.9656 37.4028 80.7983 38.1155 80.7983 38.8851V40.6419C80.7983 41.6725 80.979 42.5492 81.3404 43.272C81.7085 43.9947 82.2204 44.5468 82.8763 44.9283C83.5321 45.3031 84.2984 45.4905 85.1751 45.4905C85.7439 45.4905 86.2626 45.4102 86.7311 45.2495C87.1995 45.0822 87.6044 44.8346 87.9457 44.5067C88.287 44.1788 88.548 43.7739 88.7287 43.292L91.5696 43.804C91.3421 44.6405 90.9338 45.3733 90.3449 46.0024C89.7627 46.6248 89.0299 47.11 88.1465 47.458C87.2698 47.7993 86.2693 47.97 85.145 47.97Z" fill="white"/>
<path d="M93.6772 47.6588V32.2396H96.5783V34.689H96.7389C97.02 33.8592 97.5153 33.2067 98.2246 32.7315C98.9407 32.2497 99.7505 32.0087 100.654 32.0087C100.841 32.0087 101.062 32.0154 101.317 32.0288C101.578 32.0422 101.782 32.0589 101.929 32.079V34.95C101.808 34.9166 101.594 34.8798 101.286 34.8396C100.979 34.7928 100.671 34.7693 100.363 34.7693C99.6535 34.7693 99.021 34.9199 98.4656 35.2211C97.9168 35.5155 97.4818 35.9271 97.1606 36.4558C96.8393 36.9778 96.6787 37.5734 96.6787 38.2427V47.6588H93.6772Z" fill="white"/>
<path d="M116.773 32.2396L111.181 47.6588H107.969L102.368 32.2396H105.59L109.495 44.1051H109.655L113.55 32.2396H116.773Z" fill="white"/>
<path d="M118.18 47.6588V32.2396H121.182V47.6588H118.18ZM119.696 29.8605C119.174 29.8605 118.726 29.6865 118.351 29.3385C117.983 28.9838 117.799 28.5622 117.799 28.0737C117.799 27.5784 117.983 27.1568 118.351 26.8088C118.726 26.4541 119.174 26.2768 119.696 26.2768C120.218 26.2768 120.663 26.4541 121.031 26.8088C121.406 27.1568 121.593 27.5784 121.593 28.0737C121.593 28.5622 121.406 28.9838 121.031 29.3385C120.663 29.6865 120.218 29.8605 119.696 29.8605Z" fill="white"/>
<path d="M130.301 47.97C128.809 47.97 127.524 47.632 126.446 46.9561C125.376 46.2735 124.552 45.3332 123.977 44.1353C123.401 42.9373 123.114 41.5654 123.114 40.0195C123.114 38.4535 123.408 37.0715 123.997 35.8736C124.586 34.669 125.416 33.7287 126.487 33.0528C127.557 32.3768 128.819 32.0389 130.271 32.0389C131.442 32.0389 132.486 32.2564 133.403 32.6914C134.32 33.1197 135.059 33.722 135.622 34.4983C136.19 35.2746 136.528 36.1814 136.635 37.2187H133.714C133.554 36.496 133.186 35.8736 132.61 35.3516C132.041 34.8296 131.278 34.5686 130.321 34.5686C129.485 34.5686 128.752 34.7894 128.123 35.2311C127.5 35.6661 127.015 36.2885 126.667 37.0983C126.319 37.9014 126.145 38.8517 126.145 39.9492C126.145 41.0735 126.316 42.0439 126.657 42.8604C126.999 43.6768 127.48 44.3093 128.103 44.7576C128.732 45.206 129.471 45.4302 130.321 45.4302C130.89 45.4302 131.405 45.3265 131.867 45.119C132.336 44.9049 132.727 44.6004 133.042 44.2055C133.363 43.8107 133.587 43.3355 133.714 42.7801H136.635C136.528 43.7772 136.204 44.6673 135.662 45.4503C135.12 46.2333 134.394 46.849 133.483 47.2974C132.58 47.7458 131.519 47.97 130.301 47.97Z" fill="white"/>
<path d="M145.077 47.97C143.558 47.97 142.25 47.6454 141.152 46.9962C140.061 46.3404 139.218 45.4202 138.623 44.2356C138.034 43.0444 137.739 41.6491 137.739 40.0496C137.739 38.4702 138.034 37.0782 138.623 35.8736C139.218 34.669 140.048 33.7287 141.112 33.0528C142.183 32.3768 143.434 32.0389 144.867 32.0389C145.737 32.0389 146.58 32.1827 147.396 32.4705C148.213 32.7583 148.946 33.21 149.595 33.8257C150.244 34.4414 150.756 35.2411 151.131 36.2249C151.505 37.202 151.693 38.3899 151.693 39.7886V40.8527H139.436V38.604H148.751C148.751 37.8143 148.591 37.115 148.27 36.506C147.948 35.8903 147.497 35.4051 146.914 35.0504C146.339 34.6957 145.663 34.5184 144.887 34.5184C144.043 34.5184 143.307 34.7258 142.678 35.1408C142.056 35.549 141.574 36.0844 141.233 36.7469C140.898 37.4028 140.731 38.1155 140.731 38.8851V40.6419C140.731 41.6725 140.911 42.5492 141.273 43.272C141.641 43.9947 142.153 44.5468 142.809 44.9283C143.465 45.3031 144.231 45.4905 145.107 45.4905C145.676 45.4905 146.195 45.4102 146.663 45.2495C147.132 45.0822 147.537 44.8346 147.878 44.5067C148.219 44.1788 148.48 43.7739 148.661 43.292L151.502 43.804C151.274 44.6405 150.866 45.3733 150.277 46.0024C149.695 46.6248 148.962 47.11 148.079 47.458C147.202 47.7993 146.202 47.97 145.077 47.97Z" fill="white"/>
<path d="M165.164 36.0041L162.443 36.4859C162.33 36.1379 162.149 35.8066 161.901 35.4921C161.66 35.1776 161.333 34.9199 160.918 34.7191C160.503 34.5184 159.984 34.418 159.362 34.418C158.512 34.418 157.802 34.6087 157.233 34.9902C156.665 35.365 156.38 35.8501 156.38 36.4458C156.38 36.9611 156.571 37.376 156.952 37.6905C157.334 38.0051 157.95 38.2627 158.799 38.4635L161.249 39.0257C162.668 39.3536 163.725 39.8589 164.421 40.5415C165.117 41.2241 165.465 42.1108 165.465 43.2017C165.465 44.1252 165.197 44.9484 164.662 45.6712C164.133 46.3872 163.394 46.9494 162.443 47.3576C161.5 47.7659 160.406 47.97 159.161 47.97C157.434 47.97 156.026 47.6019 154.935 46.8657C153.844 46.1229 153.175 45.0688 152.927 43.7036L155.828 43.2619C156.009 44.0181 156.38 44.5903 156.942 44.9785C157.505 45.36 158.237 45.5507 159.141 45.5507C160.125 45.5507 160.911 45.3466 161.5 44.9383C162.089 44.5234 162.383 44.0181 162.383 43.4225C162.383 42.9407 162.203 42.5358 161.841 42.2079C161.486 41.8799 160.941 41.6323 160.205 41.465L157.595 40.8928C156.156 40.5649 155.092 40.0429 154.403 39.3268C153.72 38.6107 153.379 37.7039 153.379 36.6064C153.379 35.6962 153.633 34.8998 154.142 34.2172C154.65 33.5346 155.353 33.0026 156.25 32.6211C157.146 32.2329 158.174 32.0389 159.332 32.0389C160.998 32.0389 162.31 32.4002 163.267 33.123C164.224 33.8391 164.856 34.7995 165.164 36.0041Z" fill="white"/>
<path d="M61.7307 0.994008H66.2882L72.3916 15.8912H72.6325L78.7359 0.994008H83.2934V21.5529H79.7197V7.42869H79.5289L73.8471 21.4926H71.1769L65.4951 7.39857H65.3044V21.5529H61.7307V0.994008Z" fill="white"/>
<path d="M92.6011 21.854C91.0552 21.854 89.72 21.5328 88.5957 20.8903C87.4781 20.2412 86.6181 19.3243 86.0158 18.1398C85.4135 16.9485 85.1124 15.5465 85.1124 13.9336C85.1124 12.3476 85.4135 10.9556 86.0158 9.75762C86.6248 8.553 87.4748 7.61608 88.5656 6.94684C89.6565 6.27092 90.938 5.93295 92.4103 5.93295C93.3607 5.93295 94.2574 6.08688 95.1007 6.39472C95.9506 6.69588 96.7001 7.16434 97.3493 7.80012C98.0051 8.43589 98.5205 9.24566 98.8952 10.2294C99.27 11.2065 99.4574 12.371 99.4574 13.7228V14.8371H86.8189V12.3877H95.974C95.9673 11.6917 95.8167 11.0727 95.5223 10.5306C95.2278 9.98182 94.8162 9.55016 94.2875 9.23562C93.7655 8.92108 93.1565 8.76381 92.4605 8.76381C91.7177 8.76381 91.0652 8.9445 90.503 9.30589C89.9409 9.66058 89.5025 10.129 89.188 10.7113C88.8801 11.2868 88.7229 11.9192 88.7162 12.6086V14.7468C88.7162 15.6435 88.8801 16.4132 89.2081 17.0556C89.536 17.6914 89.9944 18.1799 90.5833 18.5212C91.1723 18.8559 91.8616 19.0232 92.6513 19.0232C93.18 19.0232 93.6585 18.9495 94.0868 18.8023C94.5151 18.6484 94.8865 18.4242 95.2011 18.1297C95.5156 17.8353 95.7532 17.4705 95.9138 17.0355L99.3068 17.417C99.0926 18.3138 98.6844 19.0968 98.0821 19.766C97.4865 20.4286 96.7236 20.9439 95.7933 21.3119C94.8631 21.6733 93.799 21.854 92.6011 21.854Z" fill="white"/>
<path d="M108.818 6.13372V8.9445H99.9538V6.13372H108.818ZM102.142 2.43955H105.776V16.9151C105.776 17.4036 105.85 17.7784 105.997 18.0394C106.151 18.2937 106.352 18.4677 106.599 18.5614C106.847 18.6551 107.121 18.7019 107.422 18.7019C107.65 18.7019 107.857 18.6852 108.045 18.6517C108.239 18.6183 108.386 18.5882 108.487 18.5614L109.099 21.4023C108.905 21.4692 108.627 21.5428 108.266 21.6231C107.911 21.7034 107.476 21.7503 106.961 21.7637C106.05 21.7904 105.231 21.6533 104.501 21.3521C103.772 21.0442 103.193 20.5691 102.765 19.9266C102.343 19.2842 102.135 18.4811 102.142 17.5174V2.43955Z" fill="white"/>
<path d="M114.881 21.8641C113.903 21.8641 113.023 21.6901 112.24 21.3421C111.464 20.9874 110.848 20.4654 110.393 19.7761C109.945 19.0867 109.721 18.2368 109.721 17.2263C109.721 16.3563 109.881 15.6368 110.203 15.068C110.524 14.4991 110.962 14.0441 111.518 13.7028C112.073 13.3614 112.699 13.1038 113.395 12.9298C114.098 12.7491 114.824 12.6186 115.573 12.5383C116.477 12.4446 117.209 12.3609 117.772 12.2873C118.334 12.207 118.742 12.0866 118.996 11.9259C119.257 11.7586 119.388 11.501 119.388 11.153V11.0927C119.388 10.3365 119.164 9.75093 118.715 9.33601C118.267 8.92108 117.621 8.71362 116.778 8.71362C115.888 8.71362 115.182 8.9077 114.66 9.29585C114.144 9.68401 113.796 10.1424 113.616 10.6711L110.223 10.1893C110.49 9.25235 110.932 8.46935 111.548 7.84027C112.163 7.2045 112.916 6.72934 113.806 6.4148C114.696 6.09357 115.68 5.93295 116.758 5.93295C117.501 5.93295 118.24 6.01995 118.976 6.19395C119.712 6.36795 120.385 6.65572 120.994 7.05726C121.603 7.45211 122.092 7.99085 122.46 8.67346C122.834 9.35608 123.022 10.2094 123.022 11.2333V21.5529H119.528V19.4347H119.408C119.187 19.8631 118.876 20.2646 118.474 20.6394C118.079 21.0074 117.581 21.3053 116.979 21.5328C116.383 21.7536 115.684 21.8641 114.881 21.8641ZM115.824 19.1938C116.554 19.1938 117.186 19.0499 117.721 18.7622C118.257 18.4677 118.668 18.0795 118.956 17.5977C119.251 17.1158 119.398 16.5905 119.398 16.0217V14.2047C119.284 14.2984 119.09 14.3854 118.816 14.4657C118.548 14.546 118.247 14.6163 117.912 14.6765C117.578 14.7367 117.246 14.7903 116.918 14.8371C116.59 14.884 116.306 14.9241 116.065 14.9576C115.523 15.0312 115.038 15.1516 114.609 15.319C114.181 15.4863 113.843 15.7205 113.596 16.0217C113.348 16.3161 113.224 16.6976 113.224 17.166C113.224 17.8353 113.468 18.3405 113.957 18.6819C114.446 19.0232 115.068 19.1938 115.824 19.1938Z" fill="white"/>
<path d="M128.896 0.994008V21.5529H125.262V0.994008H128.896Z" fill="white"/>
<path d="M154.576 7.93062H150.822C150.715 7.31492 150.517 6.76949 150.23 6.29434C149.942 5.81249 149.584 5.40426 149.156 5.06964C148.727 4.73502 148.239 4.48406 147.69 4.31675C147.148 4.14275 146.562 4.05575 145.933 4.05575C144.816 4.05575 143.825 4.33683 142.962 4.89899C142.098 5.45445 141.423 6.27092 140.934 7.34838C140.445 8.41916 140.201 9.72751 140.201 11.2734C140.201 12.8461 140.445 14.1712 140.934 15.2487C141.429 16.3195 142.105 17.1292 142.962 17.678C143.825 18.2201 144.812 18.4911 145.923 18.4911C146.539 18.4911 147.114 18.4108 147.65 18.2502C148.192 18.0829 148.677 17.8386 149.105 17.5174C149.54 17.1962 149.905 16.8013 150.2 16.3328C150.501 15.8644 150.708 15.329 150.822 14.7267L154.576 14.7468C154.436 15.7238 154.131 16.6407 153.663 17.4973C153.201 18.3539 152.595 19.1102 151.846 19.766C151.096 20.4152 150.22 20.9238 149.216 21.2919C148.212 21.6533 147.098 21.8339 145.873 21.8339C144.066 21.8339 142.453 21.4157 141.034 20.5791C139.616 19.7426 138.498 18.5346 137.681 16.9552C136.865 15.3758 136.457 13.4819 136.457 11.2734C136.457 9.05827 136.868 7.16434 137.692 5.59164C138.515 4.01225 139.636 2.80429 141.054 1.96774C142.473 1.1312 144.079 0.71293 145.873 0.71293C147.017 0.71293 148.081 0.873546 149.065 1.19478C150.049 1.51601 150.926 1.98782 151.695 2.61021C152.465 3.2259 153.097 3.98214 153.593 4.87891C154.094 5.76899 154.422 6.78623 154.576 7.93062Z" fill="white"/>
<path d="M160.047 0.994008V21.5529H156.413V0.994008H160.047Z" fill="white"/>
<path d="M162.37 21.5529V6.13372H166.004V21.5529H162.37ZM164.197 3.94533C163.622 3.94533 163.126 3.7546 162.712 3.37313C162.297 2.98498 162.089 2.51986 162.089 1.97778C162.089 1.42901 162.297 0.963893 162.712 0.582429C163.126 0.194274 163.622 0.000196457 164.197 0.000196457C164.779 0.000196457 165.275 0.194274 165.683 0.582429C166.098 0.963893 166.305 1.42901 166.305 1.97778C166.305 2.51986 166.098 2.98498 165.683 3.37313C165.275 3.7546 164.779 3.94533 164.197 3.94533Z" fill="white"/>
<path d="M175.154 21.854C173.608 21.854 172.273 21.5328 171.148 20.8903C170.031 20.2412 169.171 19.3243 168.568 18.1398C167.966 16.9485 167.665 15.5465 167.665 13.9336C167.665 12.3476 167.966 10.9556 168.568 9.75762C169.177 8.553 170.027 7.61608 171.118 6.94684C172.209 6.27092 173.491 5.93295 174.963 5.93295C175.913 5.93295 176.81 6.08688 177.653 6.39472C178.503 6.69588 179.253 7.16434 179.902 7.80012C180.558 8.43589 181.073 9.24566 181.448 10.2294C181.823 11.2065 182.01 12.371 182.01 13.7228V14.8371H169.372V12.3877H178.527C178.52 11.6917 178.369 11.0727 178.075 10.5306C177.78 9.98182 177.369 9.55016 176.84 9.23562C176.318 8.92108 175.709 8.76381 175.013 8.76381C174.27 8.76381 173.618 8.9445 173.056 9.30589C172.494 9.66058 172.055 10.129 171.741 10.7113C171.433 11.2868 171.276 11.9192 171.269 12.6086V14.7468C171.269 15.6435 171.433 16.4132 171.761 17.0556C172.089 17.6914 172.547 18.1799 173.136 18.5212C173.725 18.8559 174.414 19.0232 175.204 19.0232C175.733 19.0232 176.211 18.9495 176.639 18.8023C177.068 18.6484 177.439 18.4242 177.754 18.1297C178.068 17.8353 178.306 17.4705 178.466 17.0355L181.859 17.417C181.645 18.3138 181.237 19.0968 180.635 19.766C180.039 20.4286 179.276 20.9439 178.346 21.3119C177.416 21.6733 176.352 21.854 175.154 21.854Z" fill="white"/>
<path d="M187.305 12.5182V21.5529H183.671V6.13372H187.144V8.75377H187.325C187.68 7.89046 188.245 7.2045 189.021 6.69588C189.804 6.18726 190.771 5.93295 191.923 5.93295C192.987 5.93295 193.914 6.16049 194.703 6.61557C195.5 7.07065 196.115 7.72985 196.55 8.59316C196.992 9.45647 197.209 10.5038 197.203 11.7352V21.5529H193.569V12.2974C193.569 11.2667 193.301 10.4603 192.766 9.87809C192.237 9.29585 191.504 9.00473 190.567 9.00473C189.932 9.00473 189.366 9.14527 188.871 9.42635C188.382 9.70074 187.997 10.0989 187.716 10.6209C187.442 11.1429 187.305 11.7754 187.305 12.5182Z" fill="white"/>
<path d="M207.183 6.13372V8.9445H198.319V6.13372H207.183ZM200.507 2.43955H204.141V16.9151C204.141 17.4036 204.215 17.7784 204.362 18.0394C204.516 18.2937 204.717 18.4677 204.965 18.5614C205.212 18.6551 205.487 18.7019 205.788 18.7019C206.015 18.7019 206.223 18.6852 206.41 18.6517C206.604 18.6183 206.751 18.5882 206.852 18.5614L207.464 21.4023C207.27 21.4692 206.992 21.5428 206.631 21.6231C206.276 21.7034 205.841 21.7503 205.326 21.7637C204.416 21.7904 203.596 21.6533 202.867 21.3521C202.137 21.0442 201.558 20.5691 201.13 19.9266C200.708 19.2842 200.501 18.4811 200.507 17.5174V2.43955Z" fill="white"/>
<path d="M36.3115 40.043C38.498 40.0432 40.2743 41.8265 40.2744 44.0215C40.2744 46.2165 38.5022 47.9997 36.3115 48H26.5039C24.3173 47.9998 22.541 46.2208 22.541 44.0215C22.5411 41.8265 24.3174 40.0431 26.5039 40.043H36.3115ZM3.97852 10.2529C6.1777 10.2531 7.95683 12.0251 7.95703 14.2158V32.6904C7.95703 34.8771 6.17782 36.6532 3.97852 36.6533C1.78331 36.6533 0 34.8814 0 32.6904V14.2158C0.000202935 12.0293 1.77923 10.2529 3.97852 10.2529ZM41.1045 10.2529C43.3037 10.253 45.0828 12.0251 45.083 14.2158V32.6904C45.083 34.8771 43.3038 36.6532 41.1045 36.6533C38.9093 36.6533 37.126 34.8814 37.126 32.6904V14.2158C37.1262 12.0293 38.9052 10.2529 41.1045 10.2529ZM31.7783 0C33.9651 -9.55854e-08 35.7412 1.7791 35.7412 3.97852C35.7411 6.17362 33.9692 7.95703 31.7783 7.95703H13.3037C11.1172 7.95691 9.34094 6.17775 9.34082 3.97852C9.34082 1.77918 11.1129 0.000119996 13.3037 0H31.7783Z" fill="white"/>
<path d="M36.3115 40.043C38.498 40.0432 40.2743 41.8265 40.2744 44.0215C40.2744 46.2165 38.5022 47.9997 36.3115 48H26.5039C24.3173 47.9998 22.541 46.2208 22.541 44.0215C22.5411 41.8265 24.3174 40.0431 26.5039 40.043H36.3115ZM3.97852 10.2529C6.1777 10.2531 7.95683 12.0251 7.95703 14.2158V32.6904C7.95703 34.8771 6.17782 36.6532 3.97852 36.6533C1.78331 36.6533 0 34.8814 0 32.6904V14.2158C0.000202935 12.0293 1.77923 10.2529 3.97852 10.2529ZM41.1045 10.2529C43.3037 10.253 45.0828 12.0251 45.083 14.2158V32.6904C45.083 34.8771 43.3038 36.6532 41.1045 36.6533C38.9093 36.6533 37.126 34.8814 37.126 32.6904V14.2158C37.1262 12.0293 38.9052 10.2529 41.1045 10.2529ZM31.7783 0C33.9651 -9.55854e-08 35.7412 1.7791 35.7412 3.97852C35.7411 6.17362 33.9692 7.95703 31.7783 7.95703H13.3037C11.1172 7.95691 9.34094 6.17775 9.34082 3.97852C9.34082 1.77918 11.1129 0.000119996 13.3037 0H31.7783Z" fill="white"/>
</svg>
