<svg width="269" height="49" viewBox="0 0 269 49" fill="none" xmlns="http://www.w3.org/2000/svg">
<path d="M4.08594 0C6.34472 7.55651e-05 8.17619 1.82022 8.17188 4.07031V40.8281H27.9443C30.19 40.8283 32.0137 42.6553 32.0137 44.9141C32.0135 47.1727 30.1942 48.9998 27.9443 49H4.07031C2.9767 49 1.98366 48.5657 1.25195 47.8604C0.480838 47.1204 0 46.0817 0 44.9297V4.07031C0 1.82018 1.83141 0 4.08594 0ZM22.9893 0C25.2481 0 27.0752 1.82018 27.0752 4.07031V27.9443C27.0749 30.19 25.2479 32.0137 22.9893 32.0137C20.7349 32.0136 18.9036 30.1942 18.9033 27.9443V4.07031C18.9033 1.8245 20.7304 3.76735e-05 22.9893 0ZM41.8945 0C44.1533 8.51803e-05 45.9805 1.82023 45.9805 4.07031V27.9443C45.9802 30.1899 44.1531 32.0136 41.8945 32.0137C39.6402 32.0137 37.8089 30.1943 37.8086 27.9443V4.07031C37.8086 1.82448 39.6357 0 41.8945 0Z" fill="white"/>
<path d="M241.653 43.5555V38.5035L255.056 25.3647C256.337 24.0703 257.406 22.9204 258.26 21.915C259.115 20.9097 259.756 19.9357 260.183 18.9932C260.61 18.0507 260.824 17.0453 260.824 15.9771C260.824 14.7581 260.547 13.715 259.994 12.8479C259.441 11.9682 258.681 11.2896 257.714 10.812C256.746 10.3345 255.646 10.0957 254.415 10.0957C253.145 10.0957 252.033 10.3596 251.078 10.8874C250.123 11.4027 249.382 12.1379 248.854 13.093C248.339 14.0481 248.081 15.1854 248.081 16.5049H241.427C241.427 14.0543 241.986 11.9242 243.104 10.1146C244.223 8.30491 245.762 6.90369 247.723 5.91089C249.696 4.91809 251.958 4.42169 254.509 4.42169C257.098 4.42169 259.372 4.90553 261.333 5.87319C263.293 6.84085 264.814 8.16668 265.895 9.85066C266.988 11.5346 267.535 13.4574 267.535 15.6189C267.535 17.0641 267.258 18.4842 266.705 19.8792C266.152 21.2741 265.178 22.8199 263.783 24.5164C262.401 26.213 260.459 28.2677 257.959 30.6806L251.304 37.4479V37.7118H268.119V43.5555H241.653Z" fill="white"/>
<path d="M215.148 43.5552V4.94926H222.142V37.6927H239.145V43.5552H215.148Z" fill="white"/>
<path d="M201.032 4.94926V43.5552H194.208V4.94926H201.032Z" fill="white"/>
<path d="M175.244 44.1397C173.409 44.1397 171.757 43.813 170.286 43.1595C168.829 42.4934 167.672 41.5132 166.818 40.2188C165.976 38.9244 165.555 37.3284 165.555 35.4307C165.555 33.797 165.856 32.4461 166.46 31.3779C167.063 30.3097 167.886 29.4551 168.929 28.8142C169.972 28.1733 171.147 27.6894 172.454 27.3627C173.774 27.0234 175.137 26.7783 176.545 26.6275C178.241 26.4516 179.617 26.2945 180.673 26.1563C181.729 26.0055 182.495 25.7793 182.973 25.4776C183.463 25.1635 183.708 24.6796 183.708 24.0261V23.913C183.708 22.493 183.287 21.3934 182.445 20.6142C181.603 19.835 180.39 19.4455 178.807 19.4455C177.135 19.4455 175.81 19.8099 174.829 20.5388C173.862 21.2677 173.208 22.1285 172.869 23.1213L166.497 22.2165C167 20.4571 167.829 18.9868 168.986 17.8055C170.142 16.6116 171.556 15.7193 173.227 15.1287C174.898 14.5255 176.746 14.2238 178.769 14.2238C180.164 14.2238 181.553 14.3872 182.935 14.714C184.317 15.0407 185.58 15.5811 186.724 16.3351C187.868 17.0766 188.785 18.0882 189.476 19.3701C190.18 20.6519 190.532 22.2542 190.532 24.177V43.5553H183.972V39.5779H183.746C183.331 40.3822 182.747 41.1362 181.993 41.8399C181.251 42.5311 180.315 43.0904 179.184 43.5176C178.065 43.9324 176.752 44.1397 175.244 44.1397ZM177.016 39.1255C178.386 39.1255 179.573 38.8553 180.579 38.3149C181.584 37.7619 182.357 37.033 182.897 36.1282C183.45 35.2234 183.727 34.2369 183.727 33.1687V29.7567C183.513 29.9327 183.149 30.096 182.633 30.2468C182.131 30.3976 181.565 30.5296 180.937 30.6427C180.309 30.7558 179.686 30.8563 179.071 30.9443C178.455 31.0323 177.921 31.1077 177.468 31.1705C176.45 31.3088 175.539 31.535 174.735 31.8491C173.931 32.1633 173.296 32.6032 172.831 33.1687C172.366 33.7216 172.134 34.438 172.134 35.3176C172.134 36.5743 172.592 37.5232 173.51 38.1641C174.427 38.805 175.596 39.1255 177.016 39.1255Z" fill="white"/>
<path d="M164.39 14.6009V19.8791H147.745V14.6009H164.39ZM151.854 7.66388H158.678V34.8464C158.678 35.7638 158.817 36.4676 159.093 36.9577C159.382 37.4352 159.759 37.762 160.224 37.9379C160.689 38.1138 161.204 38.2018 161.77 38.2018C162.197 38.2018 162.587 38.1704 162.939 38.1076C163.303 38.0447 163.579 37.9882 163.768 37.9379L164.918 43.2726C164.553 43.3983 164.032 43.5365 163.353 43.6873C162.687 43.8381 161.87 43.9261 160.903 43.9512C159.194 44.0015 157.654 43.7439 156.284 43.1784C154.914 42.6003 153.827 41.708 153.023 40.5016C152.231 39.2951 151.842 37.7871 151.854 35.9774V7.66388Z" fill="white"/>
<path d="M134.469 44.1209C131.566 44.1209 129.059 43.5176 126.947 42.3112C124.849 41.0922 123.234 39.3705 122.103 37.1461C120.972 34.9092 120.406 32.2764 120.406 29.2478C120.406 26.2694 120.972 23.6554 122.103 21.4059C123.246 19.1438 124.842 17.3845 126.891 16.1278C128.939 14.8585 131.346 14.2238 134.111 14.2238C135.895 14.2238 137.579 14.5129 139.163 15.091C140.759 15.6565 142.166 16.5362 143.385 17.7301C144.617 18.9239 145.584 20.4445 146.288 22.2919C146.992 24.1267 147.344 26.3134 147.344 28.8519V30.9443H123.611V26.3448H140.803C140.79 25.0378 140.507 23.8753 139.954 22.8574C139.401 21.8269 138.628 21.0163 137.636 20.4257C136.655 19.835 135.512 19.5397 134.205 19.5397C132.81 19.5397 131.585 19.879 130.529 20.5576C129.473 21.2237 128.65 22.1034 128.06 23.1967C127.482 24.2775 127.186 25.4651 127.174 26.7595V30.7747C127.174 32.4586 127.482 33.9038 128.097 35.1103C128.713 36.3042 129.574 37.2216 130.68 37.8625C131.786 38.4908 133.08 38.805 134.563 38.805C135.556 38.805 136.454 38.6668 137.259 38.3903C138.063 38.1012 138.76 37.6802 139.351 37.1273C139.942 36.5743 140.388 35.8894 140.689 35.0726L147.061 35.7889C146.659 37.4729 145.892 38.9432 144.761 40.1999C143.643 41.4441 142.21 42.4117 140.463 43.1029C138.716 43.7816 136.718 44.1209 134.469 44.1209Z" fill="white"/>
<path d="M77.0303 4.94926H85.5884L97.0496 32.9235H97.502L108.963 4.94926H117.521V43.5552H110.811V17.0325H110.452L99.7829 43.4421H94.7687L84.0992 16.9759H83.7411V43.5552H77.0303V4.94926Z" fill="white"/>
</svg>
