<svg width="180" height="48" viewBox="0 0 180 48" fill="none" xmlns="http://www.w3.org/2000/svg">
<path d="M18.7382 12.5588L24.8619 27.4907H25.1451L31.2687 12.5588H38.4868V36.6772H32.8103V21.8627H32.61L26.8161 36.5234H23.1888L17.3949 21.7797H17.1946V36.6772H11.5181V12.5588H18.7362H18.7382Z" fill="white"/>
<path d="M40.1133 27.7031C40.1133 22.0974 43.6232 18.3528 49.0874 18.3528C54.2218 18.3528 57.849 21.626 57.849 27.5858V29.0221H45.7899V29.1759C45.7899 31.3891 47.1554 32.8618 49.3706 32.8618C50.8777 32.8618 52.0551 32.2144 52.5022 31.0128L57.7904 31.1665C57.1309 34.723 54.0093 37.0191 49.2634 37.0191C43.5747 37.0191 40.1133 33.497 40.1133 27.7031ZM52.4901 25.6781C52.4658 23.8291 51.1003 22.5101 49.2047 22.5101C47.3091 22.5101 45.8728 23.8756 45.7899 25.6781H52.4901Z" fill="white"/>
<path d="M69.6857 22.8277H66.4226V30.9885C66.4226 32.0607 66.9526 32.437 67.8832 32.437C68.3182 32.437 68.8968 32.3196 69.1436 32.261L70.0155 36.4183C69.4612 36.5821 68.4618 36.8653 67.072 36.9361C63.0098 37.1243 60.6307 35.2874 60.6651 31.6257V22.8297H58.2739V18.5895H60.6651V14.2562H66.4246V18.5895H69.6878V22.8297L69.6857 22.8277Z" fill="white"/>
<path d="M70.4525 31.6601C70.4525 27.6566 73.5153 26.3012 77.177 25.9957C80.262 25.7246 81.4637 25.4899 81.4637 24.3813V24.3227C81.4637 23.1089 80.5695 22.4271 79.1555 22.4271C77.6362 22.4271 76.6833 23.1331 76.4345 24.2883L71.1241 24.1001C71.5833 20.8026 74.3387 18.3528 79.202 18.3528C83.8064 18.3528 87.2091 20.5558 87.2091 24.3813V36.6752H81.7914V34.1545H81.6498C80.6606 36.0035 78.9188 36.9807 76.3981 36.9807C72.9367 36.9807 70.4504 35.2368 70.4504 31.6581L70.4525 31.6601ZM81.4981 30.246V28.5265C80.8507 28.8684 79.5317 29.103 78.4595 29.2568C76.8229 29.5036 75.9045 30.2117 75.9045 31.3769C75.9045 32.5422 76.8472 33.2138 78.1763 33.2138C80.0132 33.2138 81.4981 32.0121 81.4981 30.246Z" fill="white"/>
<path d="M95.1494 36.6772H89.3899V12.5588H95.1494V36.6772Z" fill="white"/>
<path d="M103.231 36.6772H97.4717V12.5588H103.231V36.6772Z" fill="white"/>
<path d="M105.485 13.7241C105.485 12.2048 106.816 10.9809 108.44 10.9809C110.065 10.9809 111.396 12.2048 111.396 13.7241C111.396 15.2434 110.077 16.4795 108.44 16.4795C106.804 16.4795 105.485 15.2434 105.485 13.7241ZM105.556 18.5874H111.315V36.6752H105.556V18.5874Z" fill="white"/>
<path d="M112.942 27.691C112.942 22.1439 116.381 18.3528 122.067 18.3528C127.097 18.3528 130.346 21.2497 130.475 25.7003H125.094C124.869 23.8513 123.799 22.7326 122.15 22.7326C120.137 22.7326 118.806 24.44 118.806 27.6323C118.806 30.8246 120.125 32.5543 122.15 32.5543C123.728 32.5543 124.883 31.5064 125.094 29.5865H130.475C130.321 34.0614 127.165 37.0171 122.08 37.0171C116.356 37.0171 112.942 33.2138 112.942 27.691Z" fill="white"/>
<path d="M143.775 18.5874H149.522V36.6752H144.033V33.3069H143.845C143.044 35.52 141.031 36.9098 138.322 36.9098C134.6 36.9098 132.116 34.201 132.104 30.1145V18.5854H137.863V28.9837C137.875 30.95 138.958 32.1517 140.724 32.1517C142.49 32.1517 143.775 30.9743 143.775 28.8663V18.5854V18.5874Z" fill="white"/>
<path d="M162.36 24.2519C162.196 23.1089 161.136 22.2976 159.617 22.2976C158.286 22.2976 157.215 22.862 157.226 23.7805C157.213 24.4744 157.709 25.0166 159.238 25.322L162.724 25.9815C166.327 26.6754 168.071 28.2433 168.093 30.8813C168.069 34.6016 164.549 37.0171 159.708 37.0171C154.537 37.0171 151.464 34.7209 151.051 31.1402L156.74 30.9986C156.987 32.3176 158.093 33.0236 159.732 33.0236C161.205 33.0236 162.216 32.4228 162.241 31.5165C162.216 30.7154 161.535 30.244 160.04 29.9507L156.884 29.3498C153.268 28.6782 151.49 26.8878 151.515 24.1082C151.49 20.481 154.612 18.3487 159.512 18.3487C164.411 18.3487 167.343 20.5275 167.648 24.1082L162.36 24.2498V24.2519Z" fill="white"/>
<path d="M0 0V48H179.611V0H0ZM5.75951 41.8177V6.18232H173.854V41.8177H5.75951Z" fill="white"/>
</svg>
