<svg width="314" height="54" viewBox="0 0 314 54" fill="none" xmlns="http://www.w3.org/2000/svg">
<path d="M4.07031 0C6.32055 2.5363e-05 8.14493 1.81312 8.14062 4.05469V44.7588C8.14062 46.9961 6.32055 48.8134 4.07031 48.8135C1.82435 48.8135 0 47.0004 0 44.7588V4.05469C0 1.8131 1.82435 0 4.07031 0ZM60.5635 0C62.8137 0 64.6381 1.8131 64.6338 4.05469V44.7588C64.6337 46.996 62.8137 48.8135 60.5635 48.8135C58.3176 48.8134 56.4933 47.0002 56.4932 44.7588V4.05469C56.4932 1.81743 58.3133 7.1173e-05 60.5635 0ZM22.9023 8.46094C25.1524 8.46096 26.9724 10.2733 26.9727 12.5146V36.2979C26.9727 38.5351 25.1526 40.3525 22.9023 40.3525C20.6564 40.3525 18.832 38.5394 18.832 36.2979V12.5146C18.8323 10.2775 20.6522 8.46094 22.9023 8.46094ZM41.7354 15.2881C43.9812 15.2883 45.8057 17.1056 45.8057 19.3428V29.376C45.8057 31.6132 43.9812 33.4305 41.7354 33.4307C39.4894 33.4307 37.665 31.6176 37.665 29.376V19.3428C37.665 17.1055 39.4851 15.2881 41.7354 15.2881Z" fill="white"/>
<path d="M292 53.9999C291.08 53.9999 290.228 53.9253 289.445 53.7761C288.674 53.6394 288.059 53.4777 287.599 53.2912L289.165 48.0323C290.148 48.3182 291.024 48.455 291.795 48.4425C292.566 48.4301 293.243 48.1877 293.828 47.7152C294.424 47.2552 294.928 46.4844 295.338 45.4028L295.916 43.8549L285.529 14.6136H292.69L299.292 36.2462H299.59L306.21 14.6136H313.39L301.921 46.7269C301.387 48.2436 300.678 49.5428 299.795 50.6245C298.913 51.7185 297.831 52.5515 296.55 53.1234C295.282 53.7077 293.765 53.9999 292 53.9999Z" fill="white"/>
<path d="M270.068 43.8364C268.253 43.8364 266.618 43.5132 265.164 42.8667C263.721 42.2077 262.578 41.238 261.732 39.9575C260.899 38.6769 260.483 37.098 260.483 35.2207C260.483 33.6044 260.781 32.2679 261.378 31.2112C261.975 30.1544 262.789 29.309 263.821 28.6749C264.853 28.0409 266.015 27.5622 267.308 27.239C268.614 26.9033 269.963 26.6609 271.355 26.5117C273.033 26.3376 274.395 26.1822 275.439 26.0454C276.483 25.8963 277.242 25.6725 277.714 25.3741C278.199 25.0633 278.442 24.5846 278.442 23.9381V23.8262C278.442 22.4214 278.025 21.3335 277.192 20.5627C276.359 19.7919 275.159 19.4065 273.593 19.4065C271.939 19.4065 270.628 19.767 269.658 20.4881C268.701 21.2092 268.054 22.0608 267.719 23.043L261.415 22.1478C261.913 20.4073 262.733 18.9527 263.877 17.784C265.021 16.6029 266.419 15.7202 268.073 15.1359C269.726 14.5391 271.554 14.2407 273.556 14.2407C274.936 14.2407 276.309 14.4024 277.677 14.7256C279.045 15.0489 280.294 15.5835 281.425 16.3294C282.557 17.0629 283.464 18.0637 284.148 19.3319C284.844 20.6 285.192 22.1851 285.192 24.0873V43.2583H278.703V39.3234H278.479C278.069 40.1191 277.491 40.865 276.745 41.5613C276.011 42.245 275.085 42.7983 273.966 43.221C272.859 43.6313 271.56 43.8364 270.068 43.8364ZM271.821 38.8758C273.176 38.8758 274.351 38.6085 275.346 38.0739C276.34 37.5269 277.105 36.8058 277.64 35.9107C278.187 35.0155 278.46 34.0396 278.46 32.9828V29.6074C278.249 29.7814 277.888 29.943 277.379 30.0922C276.881 30.2414 276.322 30.372 275.7 30.4839C275.079 30.5958 274.463 30.6952 273.854 30.7822C273.245 30.8693 272.716 30.9439 272.269 31.006C271.262 31.1428 270.36 31.3666 269.565 31.6774C268.769 31.9882 268.141 32.4233 267.681 32.9828C267.221 33.5298 266.991 34.2385 266.991 35.1088C266.991 36.352 267.445 37.2907 268.353 37.9247C269.26 38.5588 270.416 38.8758 271.821 38.8758Z" fill="white"/>
<path d="M231.991 43.2582V5.06544H246.314C249.248 5.06544 251.709 5.61247 253.698 6.70654C255.7 7.8006 257.211 9.30494 258.23 11.2195C259.262 13.1217 259.778 15.285 259.778 17.7093C259.778 20.1585 259.262 22.3342 258.23 24.2364C257.198 26.1386 255.675 27.6367 253.661 28.7308C251.647 29.8124 249.167 30.3532 246.22 30.3532H236.728V24.6653H245.288C247.004 24.6653 248.408 24.367 249.503 23.7702C250.597 23.1734 251.405 22.3529 251.927 21.3086C252.461 20.2642 252.729 19.0645 252.729 17.7093C252.729 16.3542 252.461 15.1607 251.927 14.1288C251.405 13.0969 250.59 12.295 249.484 11.7231C248.39 11.1387 246.979 10.8466 245.251 10.8466H238.91V43.2582H231.991Z" fill="white"/>
<path d="M218.026 5.06544V43.2582H211.276V5.06544H218.026Z" fill="white"/>
<path d="M192.514 43.8364C190.699 43.8364 189.064 43.5132 187.61 42.8667C186.167 42.2077 185.024 41.238 184.178 39.9575C183.345 38.6769 182.929 37.098 182.929 35.2207C182.929 33.6044 183.227 32.2679 183.824 31.2112C184.421 30.1544 185.235 29.309 186.267 28.6749C187.299 28.0409 188.461 27.5622 189.754 27.239C191.06 26.9033 192.408 26.6609 193.801 26.5117C195.479 26.3376 196.841 26.1822 197.885 26.0454C198.929 25.8963 199.688 25.6725 200.16 25.3741C200.645 25.0633 200.887 24.5846 200.887 23.9381V23.8262C200.887 22.4214 200.471 21.3335 199.638 20.5627C198.805 19.7919 197.605 19.4065 196.039 19.4065C194.385 19.4065 193.074 19.767 192.104 20.4881C191.147 21.2092 190.5 22.0608 190.164 23.043L183.861 22.1478C184.358 20.4073 185.179 18.9527 186.323 17.784C187.467 16.6029 188.865 15.7202 190.519 15.1359C192.172 14.5391 194 14.2407 196.001 14.2407C197.381 14.2407 198.755 14.4024 200.123 14.7256C201.49 15.0489 202.74 15.5835 203.871 16.3294C205.003 17.0629 205.91 18.0637 206.594 19.3319C207.29 20.6 207.638 22.1851 207.638 24.0873V43.2583H201.149V39.3234H200.925C200.514 40.1191 199.936 40.865 199.19 41.5613C198.457 42.245 197.531 42.7983 196.412 43.221C195.305 43.6313 194.006 43.8364 192.514 43.8364ZM194.267 38.8758C195.622 38.8758 196.797 38.6085 197.792 38.0739C198.786 37.5269 199.551 36.8058 200.086 35.9107C200.633 35.0155 200.906 34.0396 200.906 32.9828V29.6074C200.695 29.7814 200.334 29.943 199.824 30.0922C199.327 30.2414 198.768 30.372 198.146 30.4839C197.524 30.5958 196.909 30.6952 196.3 30.7822C195.691 30.8693 195.162 30.9439 194.715 31.006C193.708 31.1428 192.806 31.3666 192.011 31.6774C191.215 31.9882 190.587 32.4233 190.127 32.9828C189.667 33.5298 189.437 34.2385 189.437 35.1088C189.437 36.352 189.891 37.2907 190.798 37.9247C191.706 38.5588 192.862 38.8758 194.267 38.8758Z" fill="white"/>
<path d="M181.776 14.6137V19.8354H165.31V14.6137H181.776ZM169.375 7.75094H176.126V34.6425C176.126 35.5501 176.263 36.2463 176.536 36.7312C176.822 37.2036 177.195 37.5269 177.655 37.7009C178.115 37.875 178.625 37.962 179.184 37.962C179.607 37.962 179.992 37.9309 180.34 37.8688C180.701 37.8066 180.975 37.7507 181.161 37.7009L182.299 42.9785C181.938 43.1029 181.422 43.2396 180.751 43.3888C180.092 43.538 179.284 43.625 178.326 43.6499C176.636 43.6996 175.113 43.4448 173.757 42.8853C172.402 42.3134 171.327 41.4307 170.531 40.2372C169.748 39.0436 169.363 37.5517 169.375 35.7615V7.75094Z" fill="white"/>
<path d="M152.175 43.8178C149.303 43.8178 146.823 43.221 144.734 42.0275C142.658 40.8215 141.061 39.1183 139.942 36.9177C138.823 34.7047 138.263 32.1001 138.263 29.1038C138.263 26.1573 138.823 23.5714 139.942 21.3459C141.073 19.1081 142.652 17.3675 144.678 16.1243C146.705 14.8686 149.086 14.2407 151.821 14.2407C153.586 14.2407 155.252 14.5267 156.819 15.0986C158.398 15.6581 159.79 16.5283 160.996 17.7094C162.215 18.8905 163.172 20.3949 163.868 22.2224C164.564 24.0376 164.912 26.2008 164.912 28.7122V30.7822H141.434V26.2319H158.441C158.429 24.9389 158.149 23.7889 157.602 22.7819C157.055 21.7624 156.29 20.9605 155.308 20.3762C154.339 19.7919 153.207 19.4997 151.914 19.4997C150.534 19.4997 149.322 19.8354 148.278 20.5067C147.233 21.1657 146.419 22.0359 145.835 23.1176C145.263 24.1868 144.971 25.3617 144.958 26.6422V30.6144C144.958 32.2804 145.263 33.7101 145.872 34.9036C146.481 36.0847 147.333 36.9923 148.427 37.6264C149.521 38.248 150.802 38.5588 152.269 38.5588C153.251 38.5588 154.14 38.422 154.935 38.1485C155.731 37.8626 156.421 37.4461 157.005 36.8991C157.59 36.352 158.031 35.6744 158.329 34.8663L164.633 35.575C164.235 37.2409 163.477 38.6956 162.358 39.9388C161.251 41.1696 159.834 42.1269 158.106 42.8107C156.378 43.4821 154.401 43.8178 152.175 43.8178Z" fill="white"/>
<path d="M95.3516 5.0655H103.818L115.157 32.7403H115.604L126.943 5.0655H135.409V43.2583H128.77V17.0194H128.416L117.861 43.1464H112.9L102.345 16.9634H101.991V43.2583H95.3516V5.0655Z" fill="white"/>
</svg>
