<svg width="315" height="40" viewBox="0 0 315 40" fill="none" xmlns="http://www.w3.org/2000/svg">
<path d="M19.1475 0C21.0565 0.000246147 22.4045 1.87058 21.8008 3.68164L16.088 20.8203C15.6147 22.24 16.3821 23.7748 17.8018 24.248C19.2214 24.721 20.7553 23.9536 21.2286 22.5342L28.1026 1.91211C28.4834 0.770268 29.5523 0.000172716 30.7559 0H37.3282C38.532 1.62176e-05 39.6007 0.770211 39.9815 1.91211L46.8555 22.5342C47.3288 23.9538 48.8636 24.7213 50.2833 24.248C51.7028 23.7748 52.4703 22.2399 51.9971 20.8203L46.2842 3.68164C45.6805 1.87046 47.0284 0 48.9376 0H59.4883C60.9954 0 62.3335 0.965973 62.8077 2.39648L66.3038 12.9453C66.9154 14.7902 66.7888 16.8003 65.9503 18.5537L56.4805 38.3555C56.0158 39.3271 55.0341 39.9452 53.9571 39.9453H44.1885C42.9846 39.9453 41.915 39.1753 41.5342 38.0332L35.92 18.043L35.9151 18.0273C35.9126 18.0197 35.9099 18.0115 35.9073 18.0039C35.9026 17.9902 35.8976 17.9765 35.8926 17.9629C35.7478 17.5598 35.5164 17.2113 35.2266 16.9316C34.9825 16.6953 34.6901 16.5019 34.3585 16.3682C34.0394 16.239 33.6947 16.1699 33.3428 16.1699C32.6369 16.1698 31.9603 16.448 31.459 16.9316C31.1693 17.2113 30.9379 17.5599 30.793 17.9629C30.7835 17.9893 30.7744 18.0163 30.7657 18.043L25.1514 38.0332C24.7707 39.1752 23.7019 39.9452 22.4981 39.9453H12.7296C11.6525 39.9453 10.6709 39.3271 10.2061 38.3555L0.735416 18.5537C-0.103089 16.8003 -0.229653 14.7902 0.3819 12.9453L3.87897 2.39648C4.35315 0.966049 5.69037 0.00010258 7.19733 0H19.1475ZM33.5743 26.3975C34.3389 26.3975 35.0152 26.8942 35.2432 27.624L35.8985 29.7217C36.2502 30.8472 35.4097 31.9909 34.2305 31.9912H32.6924C31.5131 31.9912 30.6719 30.8473 31.0235 29.7217L31.6798 27.624C31.9078 26.8943 32.5832 26.3976 33.3477 26.3975H33.5743Z" fill="white"/>
<path d="M294.852 22.1061V39.4229H287.887V0.0175781H294.698V14.8908H295.044C295.737 13.2232 296.808 11.9084 298.258 10.9464C299.72 9.97153 301.58 9.48409 303.838 9.48409C305.89 9.48409 307.679 9.91381 309.206 10.7732C310.732 11.6327 311.912 12.8897 312.746 14.5444C313.593 16.1992 314.016 18.2195 314.016 20.6053V39.4229H307.051V21.6828C307.051 19.6946 306.538 18.1489 305.511 17.0458C304.498 15.9298 303.074 15.3718 301.24 15.3718C300.009 15.3718 298.905 15.6412 297.931 16.1799C296.969 16.7058 296.212 17.4691 295.66 18.4696C295.121 19.4701 294.852 20.6823 294.852 22.1061Z" fill="white"/>
<path d="M284.678 9.86885V15.2563H267.688V9.86885H284.678ZM271.883 2.78821H278.848V30.5336C278.848 31.47 278.989 32.1883 279.271 32.6885C279.566 33.176 279.951 33.5095 280.426 33.6891C280.9 33.8686 281.426 33.9584 282.003 33.9584C282.439 33.9584 282.837 33.9264 283.196 33.8622C283.568 33.7981 283.85 33.7404 284.043 33.6891L285.217 39.1342C284.845 39.2625 284.312 39.4036 283.62 39.5575C282.94 39.7115 282.106 39.8013 281.118 39.8269C279.374 39.8782 277.802 39.6153 276.404 39.038C275.006 38.448 273.897 37.5372 273.076 36.3058C272.267 35.0744 271.87 33.5351 271.883 31.688V2.78821Z" fill="white"/>
<path d="M259.043 26.9933V9.86887H266.008V39.4229H259.255V34.1701H258.947C258.28 35.8248 257.183 37.1781 255.657 38.2299C254.143 39.2818 252.277 39.8077 250.058 39.8077C248.121 39.8077 246.408 39.378 244.92 38.5185C243.445 37.6463 242.291 36.3828 241.457 34.7281C240.623 33.0605 240.206 31.0467 240.206 28.6865V9.86887H247.172V27.609C247.172 29.4817 247.685 30.9697 248.711 32.0728C249.737 33.176 251.084 33.7276 252.751 33.7276C253.778 33.7276 254.772 33.4774 255.734 32.9772C256.696 32.4769 257.485 31.7329 258.1 30.7452C258.729 29.7447 259.043 28.494 259.043 26.9933Z" fill="white"/>
<path d="M209.617 39.4229H201.998L215.871 0.0175781H224.683L238.575 39.4229H230.956L220.431 8.09875H220.123L209.617 39.4229ZM209.868 23.9725H230.648V29.7063H209.868V23.9725Z" fill="white"/>
<path d="M175.531 39.4229V0.0175781H182.497V14.7561H182.785C183.144 14.0378 183.651 13.2745 184.305 12.4664C184.96 11.6455 185.845 10.9464 186.961 10.3692C188.077 9.77912 189.5 9.48409 191.232 9.48409C193.515 9.48409 195.574 10.0677 197.408 11.235C199.256 12.3895 200.718 14.1019 201.795 16.3723C202.886 18.6299 203.431 21.4006 203.431 24.6844C203.431 27.9297 202.898 30.6875 201.834 32.958C200.769 35.2284 199.32 36.9601 197.485 38.153C195.651 39.3459 193.573 39.9424 191.251 39.9424C189.558 39.9424 188.154 39.6602 187.038 39.0958C185.922 38.5314 185.024 37.8516 184.344 37.0563C183.677 36.2482 183.157 35.4849 182.785 34.7666H182.381V39.4229H175.531ZM182.362 24.6459C182.362 26.5572 182.631 28.2311 183.17 29.6678C183.722 31.1044 184.511 32.2268 185.537 33.0349C186.576 33.8302 187.833 34.2279 189.308 34.2279C190.847 34.2279 192.136 33.8174 193.175 32.9965C194.214 32.1627 194.997 31.0275 195.523 29.5908C196.062 28.1413 196.331 26.493 196.331 24.6459C196.331 22.8116 196.068 21.1826 195.542 19.7587C195.016 18.3349 194.234 17.2189 193.195 16.4108C192.156 15.6027 190.86 15.1986 189.308 15.1986C187.82 15.1986 186.557 15.5899 185.518 16.3723C184.479 17.1548 183.69 18.2515 183.151 19.6625C182.625 21.0735 182.362 22.7346 182.362 24.6459Z" fill="white"/>
<path d="M159.44 40C156.477 40 153.918 39.3843 151.763 38.1529C149.621 36.9086 147.973 35.1513 146.818 32.8809C145.664 30.5976 145.087 27.9103 145.087 24.8189C145.087 21.7789 145.664 19.1108 146.818 16.8147C147.986 14.5058 149.615 12.71 151.706 11.4273C153.797 10.1317 156.253 9.48396 159.075 9.48396C160.896 9.48396 162.615 9.77899 164.231 10.369C165.861 10.9463 167.297 11.8442 168.541 13.0628C169.799 14.2814 170.786 15.8335 171.505 17.7191C172.223 19.5918 172.582 21.8238 172.582 24.4149V26.5506H148.358V21.8559H165.905C165.893 20.5218 165.604 19.3353 165.04 18.2963C164.475 17.2445 163.686 16.4171 162.673 15.8142C161.672 15.2113 160.505 14.9099 159.171 14.9099C157.747 14.9099 156.497 15.2562 155.419 15.9489C154.342 16.6287 153.501 17.5267 152.899 18.6426C152.309 19.7458 152.007 20.9579 151.994 22.2791V26.3775C151.994 28.0963 152.309 29.5714 152.937 30.8029C153.566 32.0214 154.444 32.9578 155.573 33.612C156.702 34.2534 158.023 34.5741 159.537 34.5741C160.55 34.5741 161.467 34.433 162.288 34.1508C163.109 33.8557 163.821 33.426 164.424 32.8616C165.027 32.2972 165.482 31.5982 165.79 30.7644L172.293 31.4955C171.883 33.2144 171.1 34.7152 169.946 35.9979C168.804 37.2678 167.342 38.2555 165.559 38.961C163.776 39.6537 161.737 40 159.44 40Z" fill="white"/>
<path d="M106.672 39.4228L95.5504 0.0175171H103.228L110.327 28.975H110.693L118.274 0.0175171H125.258L132.858 28.9943H133.205L140.305 0.0175171H147.982L136.861 39.4228H129.818L121.93 11.7737H121.622L113.714 39.4228H106.672Z" fill="white"/>
</svg>
