<svg width="48" height="48" viewBox="0 0 48 48" fill="none" xmlns="http://www.w3.org/2000/svg">
<path d="M43.0332 0C45.7724 7.02708e-05 47.998 2.22664 47.998 4.96582V43.0332C47.998 45.7723 45.7723 47.998 43.0332 47.998H4.96582C2.22664 47.998 6.40689e-05 45.7724 0 43.0332V4.96582C0 2.2266 2.2266 0 4.96582 0H43.0332ZM11.3867 10.8408C11.3613 10.8408 11.3358 10.8431 11.3105 10.8438C11.2451 10.8455 11.1795 10.8482 11.1143 10.8545C11.0802 10.8578 11.0464 10.8637 11.0127 10.8682C10.9553 10.8758 10.8978 10.8833 10.8408 10.8945C10.8073 10.9011 10.7743 10.9102 10.7412 10.918C10.6834 10.9316 10.6255 10.9455 10.5684 10.9629C10.5325 10.9738 10.4972 10.9867 10.4619 10.999C10.4146 11.0155 10.3669 11.0317 10.3203 11.0508C10.2716 11.0708 10.2241 11.0936 10.1768 11.1162C10.1404 11.1336 10.1032 11.1499 10.0674 11.1689C10.0237 11.1922 9.98176 11.2187 9.93945 11.2441C9.90308 11.266 9.86571 11.2868 9.83008 11.3105C9.77614 11.3465 9.72506 11.3863 9.67383 11.4258C9.6541 11.441 9.63271 11.4549 9.61328 11.4707C9.61112 11.4724 9.60859 11.4738 9.60645 11.4756C9.54236 11.528 9.48107 11.5838 9.42188 11.6416C9.30693 11.7536 9.20523 11.8747 9.11328 12.001C9.0919 12.0303 9.06909 12.0587 9.04883 12.0889C8.96943 12.2073 8.90151 12.3316 8.8418 12.459C8.82409 12.4966 8.80513 12.5338 8.78906 12.5723C8.77443 12.6075 8.76316 12.644 8.75 12.6797C8.73183 12.7288 8.71273 12.7778 8.69727 12.8281C8.68278 12.8754 8.67212 12.9238 8.66016 12.9717C8.65051 13.0103 8.63889 13.0486 8.63086 13.0879L8.62891 13.0977C8.59337 13.2741 8.57469 13.4538 8.57324 13.6338V34.3447C8.57346 35.8984 9.8331 37.1579 11.3867 37.1582C12.9406 37.1582 14.2009 35.8986 14.2012 34.3447V21.584L21.8076 30.9521C21.8612 31.0186 21.9191 31.0823 21.9795 31.1445C22.1929 31.3654 22.4346 31.5454 22.6953 31.6816C22.7198 31.6945 22.7457 31.7047 22.7705 31.7168C22.8264 31.7439 22.8821 31.7716 22.9395 31.7949C22.9821 31.8123 23.0261 31.8257 23.0693 31.8408C23.1106 31.8553 23.1515 31.8713 23.1934 31.8838C23.2653 31.9053 23.3381 31.9229 23.4111 31.9385C23.4225 31.9409 23.4339 31.944 23.4453 31.9463C23.5058 31.9584 23.567 31.9665 23.6279 31.9746C23.6614 31.9791 23.6949 31.985 23.7285 31.9883C23.774 31.9926 23.8197 31.993 23.8652 31.9951C23.9098 31.9973 23.9544 32.0009 23.999 32.001C24.0433 32.0009 24.0876 31.9972 24.1318 31.9951C24.1777 31.993 24.2238 31.9926 24.2695 31.9883C24.3042 31.9849 24.3385 31.9783 24.373 31.9736C24.432 31.9658 24.4913 31.9589 24.5498 31.9473C24.5685 31.9435 24.5869 31.9377 24.6055 31.9336C24.6719 31.919 24.7382 31.9033 24.8037 31.8838C24.841 31.8727 24.8772 31.8583 24.9141 31.8457C24.9633 31.8288 25.013 31.8128 25.0615 31.793C25.1036 31.7759 25.1443 31.7555 25.1855 31.7363C25.2259 31.7175 25.2669 31.6996 25.3066 31.6787C25.3596 31.6509 25.4105 31.6192 25.4619 31.5879C25.4898 31.5708 25.5194 31.5562 25.5469 31.5381C25.593 31.5077 25.6361 31.4728 25.6807 31.4395C25.7109 31.4168 25.7438 31.3971 25.7734 31.373C25.9302 31.2458 26.0685 31.1042 26.1904 30.9531L33.7979 21.584V34.3447C33.7981 35.8985 35.0575 37.1581 36.6113 37.1582C38.1651 37.1581 39.4246 35.8985 39.4248 34.3447V13.6543C39.4247 13.4657 39.4057 13.2775 39.3682 13.0928C39.3599 13.0519 39.3479 13.0119 39.3379 12.9717C39.3259 12.9238 39.3153 12.8754 39.3008 12.8281C39.2843 12.7744 39.2637 12.7222 39.2441 12.6699C39.232 12.6375 39.2213 12.6043 39.208 12.5723C39.1919 12.5338 39.173 12.4966 39.1553 12.459C39.0077 12.1445 38.8007 11.8539 38.5342 11.6045C38.4198 11.4972 38.298 11.3977 38.167 11.3105C38.1276 11.2843 38.0862 11.2613 38.0459 11.2373C38.009 11.2153 37.9725 11.1922 37.9346 11.1719C37.891 11.1486 37.8461 11.1282 37.8018 11.1074C37.7616 11.0886 37.7218 11.0687 37.6807 11.0518C37.6312 11.0314 37.5805 11.0144 37.5303 10.9971C37.4969 10.9855 37.4636 10.9732 37.4297 10.9629C37.3726 10.9456 37.3146 10.9316 37.2568 10.918C37.2238 10.9102 37.1907 10.9011 37.1572 10.8945C37.098 10.8829 37.0382 10.875 36.9785 10.8672C36.9471 10.8631 36.9155 10.8575 36.8838 10.8545C36.8169 10.8481 36.7497 10.8454 36.6826 10.8438C36.659 10.8432 36.6351 10.8408 36.6113 10.8408H36.5908C36.4105 10.8423 36.2305 10.8608 36.0537 10.8965L36.0439 10.8984C35.9934 10.9088 35.944 10.9235 35.8945 10.9365C35.8592 10.9458 35.8231 10.9532 35.7881 10.9639C35.7202 10.9846 35.6535 11.0085 35.5879 11.0342C35.5695 11.0413 35.5505 11.0471 35.5322 11.0547C35.4809 11.076 35.4316 11.1017 35.3818 11.126C35.3472 11.1428 35.3114 11.1575 35.2773 11.1758C35.2388 11.1966 35.2025 11.2216 35.165 11.2441C35.1253 11.268 35.0846 11.2905 35.0459 11.3164C35.0064 11.3429 34.9687 11.372 34.9307 11.4004C34.8946 11.4273 34.8572 11.4526 34.8223 11.4814C34.6804 11.5983 34.5511 11.7299 34.4346 11.8721C34.4321 11.8751 34.4292 11.8778 34.4268 11.8809L23.999 24.7236L13.5713 11.8809C13.5688 11.8779 13.5659 11.875 13.5635 11.8721C13.4917 11.7845 13.4137 11.7023 13.332 11.624C13.1606 11.4594 12.9726 11.3202 12.7725 11.207C12.7564 11.1979 12.7409 11.1875 12.7246 11.1787C12.678 11.1536 12.6297 11.1317 12.582 11.1094C12.5445 11.0917 12.5072 11.0727 12.4688 11.0566C12.4336 11.042 12.397 11.0307 12.3613 11.0176C12.3122 10.9994 12.2632 10.9803 12.2129 10.9648C12.1656 10.9504 12.1172 10.9397 12.0693 10.9277C12.0291 10.9177 11.9891 10.9057 11.9482 10.8975C11.7705 10.8614 11.5895 10.8423 11.4082 10.8408H11.3867Z" fill="black"/>
</svg>
