<svg width="470" height="64" viewBox="0 0 470 64" fill="none" xmlns="http://www.w3.org/2000/svg">
<path d="M57.3789 0C61.0313 0 64 2.96868 64 6.62109V57.3789C64 61.0313 61.0313 64 57.3789 64H6.62109C2.96868 64 0 61.0313 0 57.3789V6.62109C0 2.96868 2.96868 0 6.62109 0H57.3789ZM15.1836 14.4551C15.1663 14.4551 15.149 14.4558 15.1318 14.4561C15.0905 14.4566 15.0491 14.4571 15.0078 14.459C14.981 14.4602 14.9544 14.4621 14.9277 14.4639C14.8942 14.4661 14.8606 14.4685 14.8271 14.4717C14.7862 14.4755 14.7456 14.4812 14.7051 14.4863C14.6901 14.4882 14.6751 14.4891 14.6602 14.4912C14.6202 14.4968 14.5806 14.5039 14.541 14.5107C14.514 14.5154 14.4869 14.5201 14.46 14.5254C14.4269 14.5318 14.394 14.5386 14.3613 14.5459C14.3365 14.5514 14.3118 14.5574 14.2871 14.5635C14.2551 14.5713 14.2231 14.5792 14.1914 14.5879C14.1617 14.596 14.1321 14.6044 14.1025 14.6133C14.0688 14.6234 14.0353 14.6344 14.002 14.6455C13.9812 14.6524 13.9602 14.6587 13.9395 14.666C13.9064 14.6776 13.8735 14.6896 13.8408 14.7021C13.8114 14.7134 13.7821 14.7252 13.7529 14.7373C13.725 14.7488 13.6975 14.7613 13.6699 14.7734C13.6441 14.7848 13.6184 14.7966 13.5928 14.8086C13.561 14.8235 13.5294 14.8387 13.498 14.8545C13.4729 14.8672 13.4478 14.8802 13.4229 14.8936C13.3976 14.907 13.3725 14.9206 13.3477 14.9346C13.3196 14.9503 13.2914 14.9659 13.2637 14.9824C13.2316 15.0015 13.2004 15.0219 13.1689 15.042C13.1507 15.0536 13.1324 15.0652 13.1143 15.0771C13.0232 15.1375 12.9349 15.2017 12.8496 15.2695C12.8393 15.2777 12.8286 15.2856 12.8184 15.2939C12.8151 15.2966 12.8118 15.2991 12.8086 15.3018C12.7754 15.329 12.7432 15.3574 12.7109 15.3857C12.3331 15.7165 12.037 16.1077 11.8252 16.5332C11.8156 16.5525 11.8052 16.5714 11.7959 16.5908C11.7853 16.6131 11.7758 16.6358 11.7656 16.6582C11.5677 17.0944 11.4513 17.575 11.4346 18.0811C11.4335 18.1136 11.4319 18.1461 11.4316 18.1787V45.7939C11.4316 47.866 13.1115 49.5459 15.1836 49.5459C17.2556 49.5458 18.9355 47.866 18.9355 45.7939V28.7803L29.0732 41.2666C29.2369 41.4703 29.4237 41.6606 29.6348 41.832C29.6489 41.8435 29.6644 41.854 29.6787 41.8652C29.8124 41.9708 29.9512 42.0672 30.0957 42.1523C30.118 42.1655 30.1406 42.1778 30.1631 42.1904C30.1923 42.2069 30.2214 42.2237 30.251 42.2393C30.2878 42.2587 30.3251 42.2768 30.3623 42.2949C30.3786 42.3028 30.3948 42.3107 30.4111 42.3184C30.4402 42.332 30.4697 42.3446 30.499 42.3574C30.5283 42.3702 30.5573 42.3835 30.5869 42.3955C30.6866 42.4361 30.7877 42.4714 30.8896 42.5029C30.8984 42.5056 30.9072 42.5081 30.916 42.5107C30.9624 42.5247 31.0089 42.5377 31.0557 42.5498C31.0667 42.5527 31.0778 42.5558 31.0889 42.5586C31.2546 42.6 31.4223 42.6291 31.5908 42.6475C31.6022 42.6487 31.6136 42.6502 31.625 42.6514C31.6608 42.6549 31.6966 42.6576 31.7324 42.6602C31.7659 42.6626 31.7994 42.6655 31.833 42.667C31.8519 42.6678 31.8708 42.6674 31.8896 42.668C31.9264 42.6691 31.9632 42.6699 32 42.6699C32.0368 42.6699 32.0736 42.6691 32.1104 42.668C32.1292 42.6674 32.1481 42.6678 32.167 42.667C32.2009 42.6655 32.2347 42.6626 32.2686 42.6602C32.3044 42.6576 32.3402 42.6549 32.376 42.6514C32.3871 42.6502 32.3981 42.6487 32.4092 42.6475C32.5761 42.6293 32.742 42.6003 32.9062 42.5596C32.9213 42.5558 32.9362 42.5518 32.9512 42.5479C33.1097 42.5064 33.2664 42.4554 33.4199 42.3926C33.441 42.384 33.4615 42.3742 33.4824 42.3652C33.5184 42.3498 33.5543 42.3341 33.5898 42.3174C33.6058 42.3099 33.6218 42.3026 33.6377 42.2949C33.6749 42.2768 33.7122 42.2587 33.749 42.2393C33.7787 42.2237 33.8076 42.2069 33.8369 42.1904C33.8594 42.1778 33.882 42.1655 33.9043 42.1523C33.9435 42.1292 33.982 42.1047 34.0205 42.0801C34.0344 42.0712 34.0487 42.0628 34.0625 42.0537C34.0982 42.0302 34.133 42.0053 34.168 41.9805C34.1845 41.9687 34.2014 41.9574 34.2178 41.9453C34.2977 41.8867 34.3754 41.8244 34.4512 41.7588C34.6273 41.6069 34.7858 41.442 34.9268 41.2666L45.0645 28.7812V45.7939C45.0645 47.8659 46.7444 49.5458 48.8164 49.5459C50.8885 49.5459 52.5684 47.866 52.5684 45.7939V18.2383C52.5713 17.8567 52.5158 17.4762 52.4043 17.1104C52.377 17.0209 52.3462 16.9331 52.3125 16.8467C52.0946 16.2852 51.7397 15.7688 51.251 15.3525C51.2311 15.3356 51.2116 15.3183 51.1914 15.3018C51.1883 15.2993 51.1847 15.2964 51.1816 15.2939C51.1683 15.2831 51.1541 15.2733 51.1406 15.2627C51.107 15.2361 51.0736 15.2091 51.0391 15.1836C51.0204 15.1699 51.0013 15.1569 50.9824 15.1436C50.9544 15.1237 50.9261 15.1041 50.8975 15.085C50.8646 15.063 50.8312 15.0423 50.7979 15.0215C50.777 15.0085 50.7565 14.995 50.7354 14.9824C50.7076 14.9659 50.6794 14.9503 50.6514 14.9346C50.6265 14.9206 50.6014 14.907 50.5762 14.8936C50.5663 14.8883 50.5568 14.8821 50.5469 14.877L50.4434 14.8252C50.4354 14.8213 50.427 14.8183 50.4189 14.8145C50.3826 14.7973 50.3463 14.7806 50.3096 14.7646C50.2921 14.757 50.2745 14.7495 50.2568 14.7422C50.2195 14.7267 50.1822 14.7115 50.1445 14.6973C50.1203 14.6881 50.0958 14.6796 50.0713 14.6709C50.0411 14.6602 50.0109 14.6496 49.9805 14.6396C49.9555 14.6315 49.9304 14.6238 49.9053 14.6162C49.8692 14.6053 49.8331 14.5947 49.7969 14.585C49.7709 14.578 49.7449 14.5709 49.7188 14.5645C49.6905 14.5575 49.6621 14.5512 49.6338 14.5449C49.603 14.5381 49.5721 14.5315 49.541 14.5254C49.5121 14.5197 49.4831 14.5147 49.4541 14.5098C49.432 14.506 49.4099 14.5014 49.3877 14.498L49.3291 14.4902C49.3141 14.4882 49.2992 14.4862 49.2842 14.4844C49.2479 14.4799 49.2114 14.4761 49.1748 14.4727C49.1384 14.4692 49.1019 14.4663 49.0654 14.4639C49.0414 14.4623 49.0173 14.4601 48.9932 14.459C48.9505 14.457 48.9079 14.4566 48.8652 14.4561C48.8491 14.4558 48.8326 14.4551 48.8164 14.4551H48.7891C48.7568 14.4553 48.7246 14.4569 48.6924 14.458C48.6656 14.4589 48.6389 14.4585 48.6123 14.46C48.6015 14.4606 48.5908 14.4622 48.5801 14.4629C48.1148 14.4918 47.6726 14.6057 47.2686 14.7891C47.2461 14.7992 47.2234 14.8087 47.2012 14.8193C47.1762 14.8313 47.1516 14.844 47.127 14.8564C47.0979 14.8711 47.0688 14.8859 47.04 14.9014C46.9702 14.939 46.9021 14.9796 46.835 15.0215C46.697 15.1073 46.5631 15.2017 46.4355 15.3066C46.4116 15.3263 46.3886 15.347 46.3652 15.3672C46.3414 15.3878 46.3174 15.4084 46.2939 15.4297C46.1577 15.5535 46.0309 15.6876 45.9141 15.8301C45.9108 15.834 45.9075 15.8378 45.9043 15.8418L32 32.9668L18.0967 15.8418C17.9061 15.6071 17.6919 15.4026 17.4619 15.2266C17.4487 15.2164 17.4362 15.2053 17.4229 15.1953C17.3395 15.1332 17.2534 15.0759 17.166 15.0215C17.1508 15.012 17.1355 15.0025 17.1201 14.9932C17.0339 14.9412 16.9459 14.8931 16.8564 14.8486C16.8373 14.8391 16.8182 14.8295 16.7988 14.8203C16.7938 14.8179 16.7892 14.8149 16.7842 14.8125L16.6436 14.75C16.6368 14.7472 16.6298 14.745 16.623 14.7422C16.6062 14.7352 16.5892 14.7284 16.5723 14.7217C16.5328 14.7059 16.4932 14.6902 16.4531 14.6758C16.4515 14.6752 16.4499 14.6744 16.4482 14.6738L16.2988 14.624L16.2236 14.6025C15.9671 14.5287 15.6997 14.4803 15.4238 14.4629C15.4118 14.4621 15.3998 14.4606 15.3877 14.46C15.3614 14.4586 15.335 14.4589 15.3086 14.458C15.2764 14.4569 15.2442 14.4553 15.2119 14.4551H15.1836Z" fill="black"/>
<path d="M451.178 34.0481V50.6679H444.493V22.3034H450.883V27.1231H451.215C451.868 25.535 452.908 24.2731 454.336 23.3375C455.776 22.4019 457.555 21.934 459.673 21.934C461.63 21.934 463.335 22.3526 464.788 23.1898C466.253 24.0269 467.386 25.2395 468.186 26.8277C468.998 28.4158 469.399 30.3425 469.386 32.6077V50.6679H462.701V33.6418C462.701 31.7459 462.209 30.2624 461.224 29.1914C460.251 28.1203 458.903 27.5848 457.18 27.5848C456.01 27.5848 454.97 27.8433 454.059 28.3604C453.16 28.8651 452.452 29.5976 451.935 30.5579C451.431 31.5182 451.178 32.6815 451.178 34.0481Z" fill="black"/>
<path d="M434.055 50.6678V22.3033H440.739V50.6678H434.055ZM437.416 18.2776C436.357 18.2776 435.446 17.9267 434.682 17.225C433.919 16.5109 433.538 15.6553 433.538 14.6581C433.538 13.6486 433.919 12.793 434.682 12.0913C435.446 11.3772 436.357 11.0202 437.416 11.0202C438.487 11.0202 439.398 11.3772 440.149 12.0913C440.912 12.793 441.293 13.6486 441.293 14.6581C441.293 15.6553 440.912 16.5109 440.149 17.225C439.398 17.9267 438.487 18.2776 437.416 18.2776Z" fill="black"/>
<path d="M415.477 51.2404C413.679 51.2404 412.06 50.9203 410.62 50.2801C409.192 49.6277 408.059 48.6674 407.222 47.3994C406.397 46.1313 405.985 44.5678 405.985 42.7089C405.985 41.1084 406.28 39.785 406.871 38.7386C407.462 37.6921 408.268 36.855 409.29 36.2271C410.312 35.5993 411.463 35.1253 412.743 34.8052C414.036 34.4728 415.372 34.2327 416.751 34.085C418.413 33.9127 419.761 33.7588 420.795 33.6233C421.829 33.4756 422.58 33.254 423.048 32.9585C423.528 32.6508 423.768 32.1768 423.768 31.5366V31.4258C423.768 30.0347 423.356 28.9575 422.531 28.1942C421.706 27.4309 420.518 27.0493 418.967 27.0493C417.329 27.0493 416.031 27.4063 415.07 28.1203C414.122 28.8344 413.482 29.6777 413.15 30.6502L406.908 29.7638C407.4 28.0403 408.213 26.5999 409.346 25.4427C410.478 24.2731 411.863 23.3991 413.501 22.8204C415.138 22.2295 416.948 21.934 418.93 21.934C420.296 21.934 421.657 22.0941 423.011 22.4142C424.365 22.7343 425.602 23.2636 426.723 24.0023C427.843 24.7286 428.742 25.7197 429.419 26.9754C430.108 28.2311 430.453 29.8008 430.453 31.6844V50.6679H424.027V46.7715H423.805C423.399 47.5594 422.826 48.2981 422.088 48.9875C421.361 49.6646 420.444 50.2124 419.336 50.631C418.24 51.0373 416.954 51.2404 415.477 51.2404ZM417.212 46.3283C418.554 46.3283 419.718 46.0636 420.703 45.5342C421.687 44.9926 422.445 44.2785 422.974 43.3921C423.516 42.5057 423.786 41.5393 423.786 40.4929V37.1504C423.577 37.3228 423.22 37.4828 422.715 37.6306C422.223 37.7783 421.669 37.9076 421.053 38.0184C420.438 38.1292 419.828 38.2277 419.225 38.3138C418.622 38.4 418.099 38.4739 417.656 38.5354C416.658 38.6709 415.766 38.8925 414.978 39.2002C414.19 39.508 413.568 39.9389 413.113 40.4929C412.657 41.0346 412.43 41.7363 412.43 42.5981C412.43 43.8292 412.879 44.7586 413.778 45.3865C414.676 46.0144 415.821 46.3283 417.212 46.3283Z" fill="black"/>
<path d="M385.228 34.048V50.6678H378.543V12.8484H385.08V27.123H385.412C386.077 25.5226 387.105 24.2607 388.496 23.3374C389.9 22.4018 391.685 21.934 393.851 21.934C395.821 21.934 397.539 22.3464 399.004 23.1712C400.469 23.996 401.601 25.2025 402.401 26.7906C403.214 28.3788 403.62 30.3177 403.62 32.6076V50.6678H396.935V33.6417C396.935 31.7335 396.443 30.25 395.458 29.1913C394.485 28.1202 393.119 27.5847 391.358 27.5847C390.177 27.5847 389.118 27.8432 388.182 28.3603C387.259 28.865 386.533 29.5976 386.003 30.5578C385.486 31.5181 385.228 32.6815 385.228 34.048Z" fill="black"/>
<path d="M364.023 51.2219C361.191 51.2219 358.76 50.6002 356.728 49.3568C354.709 48.1134 353.152 46.396 352.056 44.2047C350.973 42.001 350.431 39.4649 350.431 36.5964C350.431 33.7157 350.985 31.1735 352.093 28.9698C353.201 26.7538 354.765 25.0303 356.784 23.7992C358.815 22.5557 361.216 21.934 363.986 21.934C366.288 21.934 368.325 22.3588 370.098 23.2082C371.883 24.0454 373.305 25.2334 374.364 26.7723C375.423 28.2988 376.026 30.0839 376.174 32.1276H369.784C369.526 30.761 368.91 29.6223 367.938 28.7113C366.977 27.7879 365.691 27.3263 364.078 27.3263C362.712 27.3263 361.511 27.6956 360.477 28.4343C359.443 29.1606 358.637 30.207 358.058 31.5736C357.492 32.9401 357.208 34.5774 357.208 36.4857C357.208 38.4185 357.492 40.0805 358.058 41.4716C358.624 42.8504 359.418 43.9153 360.44 44.6663C361.474 45.405 362.687 45.7743 364.078 45.7743C365.063 45.7743 365.943 45.5896 366.719 45.2203C367.507 44.8387 368.165 44.2908 368.695 43.5768C369.224 42.8628 369.587 41.9948 369.784 40.973H376.174C376.014 42.9797 375.423 44.7586 374.401 46.3098C373.379 47.8487 371.988 49.0552 370.227 49.9293C368.467 50.791 366.399 51.2219 364.023 51.2219Z" fill="black"/>
<path d="M332.426 41.767L332.407 33.6971H333.478L343.672 22.3033H351.483L338.944 36.264H337.559L332.426 41.767ZM326.332 50.6678V12.8484H333.017V50.6678H326.332ZM344.133 50.6678L334.9 37.7598L339.406 33.0508L352.129 50.6678H344.133Z" fill="black"/>
<path d="M311.812 51.2219C308.98 51.2219 306.549 50.6002 304.517 49.3568C302.498 48.1134 300.941 46.396 299.845 44.2047C298.762 42.001 298.22 39.4649 298.22 36.5964C298.22 33.7157 298.774 31.1735 299.882 28.9698C300.99 26.7538 302.554 25.0303 304.573 23.7992C306.604 22.5557 309.005 21.934 311.775 21.934C314.077 21.934 316.114 22.3588 317.887 23.2082C319.672 24.0454 321.094 25.2334 322.153 26.7723C323.212 28.2988 323.815 30.0839 323.963 32.1276H317.573C317.315 30.761 316.699 29.6223 315.727 28.7113C314.766 27.7879 313.48 27.3263 311.867 27.3263C310.501 27.3263 309.3 27.6956 308.266 28.4343C307.232 29.1606 306.426 30.207 305.847 31.5736C305.281 32.9401 304.998 34.5774 304.998 36.4857C304.998 38.4185 305.281 40.0805 305.847 41.4716C306.413 42.8504 307.207 43.9153 308.229 44.6663C309.263 45.405 310.476 45.7743 311.867 45.7743C312.852 45.7743 313.732 45.5896 314.508 45.2203C315.296 44.8387 315.954 44.2908 316.484 43.5768C317.013 42.8628 317.376 41.9948 317.573 40.973H323.963C323.803 42.9797 323.212 44.7586 322.19 46.3098C321.168 47.8487 319.777 49.0552 318.017 49.9293C316.256 50.791 314.188 51.2219 311.812 51.2219Z" fill="black"/>
<path d="M283.294 51.2219C280.524 51.2219 278.124 50.6125 276.092 49.3937C274.061 48.1749 272.485 46.4699 271.365 44.2785C270.257 42.0872 269.703 39.5265 269.703 36.5964C269.703 33.6664 270.257 31.0996 271.365 28.8959C272.485 26.6922 274.061 24.981 276.092 23.7622C278.124 22.5434 280.524 21.934 283.294 21.934C286.064 21.934 288.465 22.5434 290.496 23.7622C292.527 24.981 294.097 26.6922 295.205 28.8959C296.325 31.0996 296.885 33.6664 296.885 36.5964C296.885 39.5265 296.325 42.0872 295.205 44.2785C294.097 46.4699 292.527 48.1749 290.496 49.3937C288.465 50.6125 286.064 51.2219 283.294 51.2219ZM283.331 45.8666C284.833 45.8666 286.089 45.4542 287.098 44.6294C288.108 43.7922 288.859 42.6719 289.351 41.2685C289.856 39.865 290.108 38.3015 290.108 36.578C290.108 34.8421 289.856 33.2725 289.351 31.869C288.859 30.4533 288.108 29.3268 287.098 28.4897C286.089 27.6525 284.833 27.2339 283.331 27.2339C281.792 27.2339 280.512 27.6525 279.49 28.4897C278.481 29.3268 277.723 30.4533 277.219 31.869C276.726 33.2725 276.48 34.8421 276.48 36.578C276.48 38.3015 276.726 39.865 277.219 41.2685C277.723 42.6719 278.481 43.7922 279.49 44.6294C280.512 45.4542 281.792 45.8666 283.331 45.8666Z" fill="black"/>
<path d="M267.168 12.8484V50.6678H260.483V12.8484H267.168Z" fill="black"/>
<path d="M229.721 50.6678V12.8484H244.199C246.932 12.8484 249.203 13.2793 251.013 14.1411C252.835 14.9905 254.196 16.1539 255.094 17.6313C256.005 19.1086 256.461 20.7829 256.461 22.6541C256.461 24.193 256.165 25.5103 255.574 26.606C254.983 27.6893 254.189 28.5696 253.192 29.2467C252.195 29.9238 251.081 30.4101 249.85 30.7055V31.0749C251.192 31.1487 252.478 31.5612 253.709 32.3121C254.953 33.0508 255.968 34.0972 256.756 35.4514C257.544 36.8056 257.938 38.443 257.938 40.3635C257.938 42.321 257.464 44.0815 256.516 45.645C255.568 47.1961 254.14 48.4211 252.232 49.3198C250.324 50.2185 247.923 50.6678 245.03 50.6678H229.721ZM236.572 44.9432H243.941C246.427 44.9432 248.219 44.4692 249.314 43.5213C250.422 42.561 250.976 41.3299 250.976 39.828C250.976 38.7077 250.699 37.6982 250.145 36.7995C249.591 35.8885 248.803 35.1744 247.782 34.6574C246.76 34.128 245.541 33.8633 244.125 33.8633H236.572V44.9432ZM236.572 28.9328H243.35C244.531 28.9328 245.596 28.7173 246.544 28.2864C247.492 27.8432 248.237 27.2215 248.779 26.4213C249.333 25.6088 249.61 24.6485 249.61 23.5405C249.61 22.0755 249.093 20.869 248.059 19.9211C247.037 18.9732 245.516 18.4992 243.497 18.4992H236.572V28.9328Z" fill="black"/>
<path d="M215.893 12.8484V50.6678H209.208V12.8484H215.893Z" fill="black"/>
<path d="M190.63 51.2404C188.833 51.2404 187.214 50.9203 185.773 50.2801C184.345 49.6277 183.213 48.6674 182.375 47.3994C181.551 46.1313 181.138 44.5678 181.138 42.7089C181.138 41.1084 181.434 39.785 182.025 38.7386C182.616 37.6921 183.422 36.855 184.444 36.2271C185.466 35.5993 186.617 35.1253 187.897 34.8052C189.19 34.4728 190.525 34.2327 191.904 34.085C193.566 33.9127 194.914 33.7588 195.948 33.6233C196.983 33.4756 197.733 33.254 198.201 32.9585C198.681 32.6508 198.921 32.1768 198.921 31.5366V31.4258C198.921 30.0347 198.509 28.9575 197.684 28.1942C196.859 27.4309 195.671 27.0493 194.12 27.0493C192.483 27.0493 191.184 27.4063 190.224 28.1203C189.276 28.8344 188.636 29.6777 188.303 30.6502L182.062 29.7638C182.554 28.0403 183.367 26.5999 184.499 25.4427C185.632 24.2731 187.017 23.3991 188.654 22.8204C190.291 22.2295 192.101 21.934 194.083 21.934C195.45 21.934 196.81 22.0941 198.164 22.4142C199.519 22.7343 200.756 23.2636 201.876 24.0023C202.996 24.7286 203.895 25.7197 204.572 26.9754C205.262 28.2311 205.606 29.8008 205.606 31.6844V50.6679H199.18V46.7715H198.958C198.552 47.5594 197.98 48.2981 197.241 48.9875C196.515 49.6646 195.598 50.2124 194.49 50.631C193.394 51.0373 192.107 51.2404 190.63 51.2404ZM192.366 46.3283C193.708 46.3283 194.871 46.0636 195.856 45.5342C196.841 44.9926 197.598 44.2785 198.127 43.3921C198.669 42.5057 198.94 41.5393 198.94 40.4929V37.1504C198.731 37.3228 198.374 37.4828 197.869 37.6306C197.376 37.7783 196.822 37.9076 196.207 38.0184C195.591 38.1292 194.982 38.2277 194.379 38.3138C193.775 38.4 193.252 38.4739 192.809 38.5354C191.812 38.6709 190.919 38.8925 190.131 39.2002C189.344 39.508 188.722 39.9389 188.266 40.4929C187.811 41.0346 187.583 41.7363 187.583 42.5981C187.583 43.8292 188.032 44.7586 188.931 45.3865C189.83 46.0144 190.975 46.3283 192.366 46.3283Z" fill="black"/>
<path d="M179.997 22.3032V27.4738H163.691V22.3032H179.997ZM167.717 15.5075H174.402V42.1362C174.402 43.0349 174.537 43.7244 174.808 44.2045C175.091 44.6723 175.461 44.9924 175.916 45.1647C176.372 45.3371 176.876 45.4233 177.43 45.4233C177.849 45.4233 178.231 45.3925 178.575 45.3309C178.932 45.2694 179.203 45.214 179.388 45.1647L180.514 50.3908C180.157 50.5139 179.646 50.6493 178.982 50.797C178.329 50.9448 177.529 51.0309 176.581 51.0556C174.907 51.1048 173.399 50.8524 172.057 50.2984C170.715 49.7321 169.65 48.858 168.862 47.6762C168.086 46.4943 167.705 45.017 167.717 43.2442V15.5075Z" fill="black"/>
<path d="M150.686 51.2219C147.842 51.2219 145.386 50.631 143.317 49.4491C141.261 48.255 139.68 46.5684 138.572 44.3893C137.464 42.198 136.91 39.6188 136.91 36.6518C136.91 33.7341 137.464 31.1735 138.572 28.9698C139.692 26.7538 141.255 25.0303 143.262 23.7992C145.269 22.5557 147.626 21.934 150.335 21.934C152.083 21.934 153.733 22.2172 155.284 22.7835C156.847 23.3375 158.226 24.1993 159.42 25.3688C160.627 26.5384 161.575 28.028 162.264 29.8377C162.953 31.6351 163.298 33.7772 163.298 36.2641V38.3138H140.049V33.808H156.89C156.878 32.5277 156.601 31.3889 156.059 30.3917C155.518 29.3822 154.761 28.5881 153.788 28.0095C152.828 27.4309 151.707 27.1416 150.427 27.1416C149.061 27.1416 147.86 27.474 146.826 28.1388C145.792 28.7913 144.986 29.653 144.407 30.7241C143.841 31.7828 143.551 32.9462 143.539 34.2143V38.1476C143.539 39.7973 143.841 41.2131 144.444 42.3949C145.047 43.5645 145.89 44.4632 146.974 45.091C148.057 45.7066 149.325 46.0144 150.778 46.0144C151.75 46.0144 152.631 45.8789 153.419 45.6081C154.207 45.325 154.89 44.9125 155.468 44.3708C156.047 43.8292 156.484 43.1582 156.78 42.358L163.021 43.0597C162.627 44.7094 161.876 46.1498 160.768 47.3809C159.673 48.5997 158.269 49.5476 156.558 50.2247C154.847 50.8895 152.889 51.2219 150.686 51.2219Z" fill="black"/>
<path d="M94.4174 12.8484H102.801L114.029 40.2527H114.472L125.7 12.8484H134.083V50.6678H127.509V24.6855H127.158L116.706 50.557H111.794L101.342 24.6301H100.991V50.6678H94.4174V12.8484Z" fill="black"/>
</svg>
