<svg width="46" height="48" viewBox="0 0 46 48" fill="none" xmlns="http://www.w3.org/2000/svg">
<path d="M4.00195 0C6.21471 0 8.00911 1.78309 8.00488 3.9873V39.9951H27.373C29.573 39.9951 31.3602 41.7844 31.3604 43.9971C31.3604 46.2098 29.5773 48 27.373 48H3.9873C3.96298 48 3.93829 47.9975 3.91406 47.9971C3.87094 47.9961 3.82794 47.9964 3.78516 47.9941C2.75076 47.9424 1.81964 47.4951 1.13965 46.7988C0.434916 46.0804 0 45.0976 0 44.0127V3.9873C0 1.78324 1.79364 0.000249216 4.00195 0ZM22.5205 0C24.7332 6.71628e-05 26.5225 1.78313 26.5225 3.9873V27.374C26.5222 29.5738 24.7331 31.3603 22.5205 31.3604C20.3121 31.3604 18.5178 29.578 18.5176 27.374V3.9873C18.5176 1.7873 20.3078 0 22.5205 0ZM41.0391 0C43.2518 0 45.042 1.78309 45.042 3.9873V27.374C45.0418 29.5738 43.2517 31.3604 41.0391 31.3604C38.8308 31.3602 37.0373 29.5779 37.0371 27.374V3.9873C37.0371 1.78742 38.8265 0.000190513 41.0391 0Z" fill="black"/>
</svg>
