<svg width="67" height="40" viewBox="0 0 67 40" fill="none" xmlns="http://www.w3.org/2000/svg">
<path d="M19.1727 0C21.0844 0 22.4344 1.87287 21.8299 3.68652L16.1092 20.8486C15.6353 22.2703 16.4043 23.8074 17.826 24.2812C19.2475 24.7548 20.7838 23.9859 21.2576 22.5645L28.1404 1.91504C28.5216 0.771437 29.5922 0.000154189 30.7977 0H37.3787C38.5843 0 39.6547 0.771386 40.0359 1.91504L46.9188 22.5645C47.3926 23.9861 48.9297 24.7551 50.3514 24.2812C51.773 23.8074 52.5411 22.2703 52.0672 20.8486L46.3465 3.68652C45.742 1.87294 47.092 6.54898e-05 49.0037 0H59.5691C61.0782 0 62.4175 0.967021 62.8924 2.39941L66.3943 12.9629C67.0068 14.8104 66.8796 16.8232 66.0398 18.5791L56.5564 38.4072C56.0911 39.3803 55.1087 40 54.0301 40H44.2479C43.0424 39.9999 41.9718 39.2286 41.5906 38.085L35.9686 18.0674L35.9637 18.0518C35.9611 18.0441 35.9585 18.036 35.9559 18.0283C35.9512 18.0146 35.9461 18.001 35.9412 17.9873C35.7961 17.5836 35.5645 17.2342 35.2742 16.9541C35.0298 16.7176 34.7371 16.5245 34.4051 16.3906C34.0857 16.2614 33.7407 16.1914 33.3885 16.1914C32.6815 16.1913 32.0037 16.4698 31.5018 16.9541C31.2115 17.2342 30.9798 17.5836 30.8348 17.9873C30.8252 18.0137 30.8161 18.0406 30.8074 18.0674L25.1854 38.085C24.8041 39.2286 23.7337 40 22.5281 40H12.7469C11.6683 40 10.6849 39.3803 10.2195 38.4072L0.736133 18.5791C-0.103543 16.8233 -0.229785 14.8103 0.382618 12.9629L3.88359 2.39941C4.35841 0.967044 5.69784 0.000124407 7.20684 0H19.1727ZM33.6199 26.4326C34.3855 26.4326 35.0624 26.9305 35.2908 27.6611L35.9471 29.7617C36.2993 30.889 35.4572 32.0352 34.2762 32.0352H32.7371C31.5561 32.0352 30.714 30.889 31.0662 29.7617L31.7225 27.6611C31.9509 26.9305 32.6278 26.4326 33.3934 26.4326H33.6199Z" fill="black"/>
</svg>
