<svg width="46" height="48" viewBox="0 0 46 48" fill="none" xmlns="http://www.w3.org/2000/svg">
<path d="M36.3115 40.043C38.498 40.0432 40.2743 41.8265 40.2744 44.0215C40.2744 46.2165 38.5022 47.9997 36.3115 48H26.5039C24.3173 47.9998 22.541 46.2208 22.541 44.0215C22.5411 41.8265 24.3174 40.0431 26.5039 40.043H36.3115ZM3.97852 10.2529C6.1777 10.2531 7.95683 12.0251 7.95703 14.2158V32.6904C7.95703 34.8771 6.17782 36.6532 3.97852 36.6533C1.78331 36.6533 0 34.8814 0 32.6904V14.2158C0.000202935 12.0293 1.77923 10.2529 3.97852 10.2529ZM41.1045 10.2529C43.3037 10.253 45.0828 12.0251 45.083 14.2158V32.6904C45.083 34.8771 43.3038 36.6532 41.1045 36.6533C38.9093 36.6533 37.126 34.8814 37.126 32.6904V14.2158C37.1262 12.0293 38.9052 10.2529 41.1045 10.2529ZM31.7783 0C33.9651 -9.55854e-08 35.7412 1.7791 35.7412 3.97852C35.7411 6.17362 33.9692 7.95703 31.7783 7.95703H13.3037C11.1172 7.95691 9.34094 6.17775 9.34082 3.97852C9.34082 1.77918 11.1129 0.000119996 13.3037 0H31.7783Z" fill="black"/>
<path d="M36.3115 40.043C38.498 40.0432 40.2743 41.8265 40.2744 44.0215C40.2744 46.2165 38.5022 47.9997 36.3115 48H26.5039C24.3173 47.9998 22.541 46.2208 22.541 44.0215C22.5411 41.8265 24.3174 40.0431 26.5039 40.043H36.3115ZM3.97852 10.2529C6.1777 10.2531 7.95683 12.0251 7.95703 14.2158V32.6904C7.95703 34.8771 6.17782 36.6532 3.97852 36.6533C1.78331 36.6533 0 34.8814 0 32.6904V14.2158C0.000202935 12.0293 1.77923 10.2529 3.97852 10.2529ZM41.1045 10.2529C43.3037 10.253 45.0828 12.0251 45.083 14.2158V32.6904C45.083 34.8771 43.3038 36.6532 41.1045 36.6533C38.9093 36.6533 37.126 34.8814 37.126 32.6904V14.2158C37.1262 12.0293 38.9052 10.2529 41.1045 10.2529ZM31.7783 0C33.9651 -9.55854e-08 35.7412 1.7791 35.7412 3.97852C35.7411 6.17362 33.9692 7.95703 31.7783 7.95703H13.3037C11.1172 7.95691 9.34094 6.17775 9.34082 3.97852C9.34082 1.77918 11.1129 0.000119996 13.3037 0H31.7783Z" fill="url(#paint0_linear_4422_3103)"/>
<defs>
<linearGradient id="paint0_linear_4422_3103" x1="1.44587e-08" y1="24" x2="45.083" y2="24" gradientUnits="userSpaceOnUse">
<stop stop-color="#4400E2"/>
<stop offset="1" stop-color="#20BF55"/>
</linearGradient>
</defs>
</svg>
