<svg width="65" height="64" viewBox="0 0 65 64" fill="none" xmlns="http://www.w3.org/2000/svg">
<path d="M32.1748 0C49.8479 0 64.1748 14.3269 64.1748 32C64.1748 49.6732 49.848 64 32.1748 64C14.5017 64 0.174805 49.6731 0.174805 32C0.174844 14.3269 14.5017 3.91733e-05 32.1748 0ZM32.1748 4C16.7108 4.00001 4.17485 16.536 4.1748 32C4.1748 47.464 16.7108 60 32.1748 60C47.6388 60 60.1748 47.464 60.1748 32C60.1748 16.536 47.6388 4 32.1748 4ZM32.1748 6C46.5342 6 58.1748 17.6406 58.1748 32C58.1748 46.3594 46.5342 58 32.1748 58C17.8154 58 6.1748 46.3594 6.1748 32C6.17485 17.6406 17.8154 6.00001 32.1748 6ZM34.0635 15C33.542 15.0001 33.1191 15.4228 33.1191 15.9443V17.7559C32.7482 17.7313 32.3695 17.7188 31.9834 17.7188C31.7294 17.7188 31.4783 17.726 31.2305 17.7373V15.9443C31.2305 15.4228 30.8076 15.0001 30.2861 15C29.7645 15 29.3418 15.4227 29.3418 15.9443V17.9404C24.615 18.764 21.4346 21.828 21.4346 26.123C21.4348 30.1618 24.0348 32.7796 29.3418 33.9072V41.1904C28.016 40.7196 26.9848 39.8609 26.4316 38.5664C25.7425 37.3412 24.9574 36.8818 23.7705 36.8818C22.2773 36.8818 21.2246 37.8962 21.2246 39.4277C21.2246 39.9446 21.3389 40.4808 21.5303 40.9785C22.4569 43.5029 25.1577 45.5045 29.3418 46.0986V48.0557C29.3419 48.5772 29.7646 49 30.2861 49C30.8075 48.9999 31.2304 48.5771 31.2305 48.0557V46.2646C31.4835 46.2741 31.7412 46.2812 32.0029 46.2812C32.3832 46.2812 32.7553 46.2686 33.1191 46.248V48.0557C33.1193 48.5771 33.542 48.9999 34.0635 49C34.585 49 35.0077 48.5772 35.0078 48.0557V46.04C40.1033 45.1766 43.1248 42.0376 43.125 37.4756C43.125 33.3475 40.6752 31.0014 35.0078 29.8154V23.0518C35.8915 23.5267 36.5871 24.2716 37.0566 25.3379C37.7075 26.5247 38.5117 27.042 39.8135 27.042C41.2875 27.0419 42.2832 26.1029 42.2832 24.7246C42.2832 24.2271 42.2062 23.8251 42.0723 23.4424C41.1059 20.6039 38.5319 18.6834 35.0078 17.998V15.9443C35.0078 15.4227 34.5851 15 34.0635 15ZM32.5771 34.5459C32.7641 34.5841 32.9446 34.6239 33.1191 34.6641V41.5752C32.8045 41.6098 32.4767 41.6289 32.1367 41.6289C31.8277 41.6289 31.5251 41.6144 31.2305 41.5879V34.2812L32.5771 34.5459ZM35.0078 35.2354C36.6705 35.902 37.3436 36.8002 37.3438 38.1064C37.3438 39.4168 36.465 40.5028 35.0078 41.1084V35.2354ZM31.9834 22.3896C32.379 22.3897 32.7578 22.4153 33.1191 22.4648V29.4287L31.8301 29.167C31.6223 29.1257 31.4227 29.0817 31.2305 29.0371V22.4219C31.473 22.4003 31.7243 22.3896 31.9834 22.3896ZM29.3418 28.4414C27.8683 27.8033 27.2354 26.9375 27.2354 25.7588C27.2354 24.4525 28.0213 23.4326 29.3418 22.8711V28.4414Z" fill="black"/>
</svg>
