<svg width="64" height="64" viewBox="0 0 64 64" fill="none" xmlns="http://www.w3.org/2000/svg">
<ellipse cx="32.0001" cy="32" rx="32.0001" ry="32" fill="black"/>
<ellipse cx="32.0001" cy="32" rx="32.0001" ry="32" fill="url(#paint0_linear_4422_3303)"/>
<path d="M31.8276 46.2814C26.1227 46.2814 22.4661 44.0032 21.3558 40.9785C21.1643 40.4807 21.0495 39.9447 21.0495 39.4278C21.0495 37.8963 22.1024 36.8816 23.5956 36.8816C24.7826 36.8816 25.5675 37.3411 26.2567 38.5663C27.1565 40.6722 29.3198 41.6294 31.9617 41.6294C35.063 41.6294 37.1689 40.1361 37.1689 38.1068C37.1689 36.2882 35.8671 35.2544 32.402 34.546L29.4729 33.9717C23.9594 32.8805 21.2601 30.2386 21.2601 26.1226C21.2601 21.0686 25.6632 17.7183 31.8085 17.7183C36.8626 17.7183 40.6723 19.8433 41.8975 23.4424C42.0315 23.8253 42.1081 24.2273 42.1081 24.7251C42.1081 26.1035 41.1126 27.0415 39.6385 27.0415C38.3367 27.0415 37.5326 26.5246 36.8817 25.3377C35.9628 23.251 34.1824 22.3895 31.8085 22.3895C28.956 22.3895 27.0607 23.7296 27.0607 25.7589C27.0607 27.4627 28.3817 28.5156 31.6554 29.1665L34.5653 29.76C40.4234 30.9278 42.9504 33.2825 42.9504 37.4751C42.9504 42.8737 38.7196 46.2814 31.8276 46.2814Z" fill="white"/>
<path d="M29.1666 15.9443C29.1666 15.4227 29.5894 14.9999 30.1111 14.9999C30.6327 14.9999 31.0555 15.4227 31.0555 15.9443V48.0554C31.0555 48.577 30.6327 48.9999 30.1111 48.9999C29.5894 48.9999 29.1666 48.577 29.1666 48.0554V15.9443Z" fill="white"/>
<path d="M32.9444 15.9443C32.9444 15.4227 33.3672 14.9999 33.8888 14.9999C34.4104 14.9999 34.8333 15.4227 34.8333 15.9443V48.0554C34.8333 48.577 34.4104 48.9999 33.8888 48.9999C33.3672 48.9999 32.9444 48.577 32.9444 48.0554V15.9443Z" fill="white"/>
<path d="M58.0001 32.0001C58.0001 17.6407 46.3595 6.00008 32 6.00008C17.6406 6.00008 5.99997 17.6407 5.99997 32.0001C5.99997 46.3595 17.6406 58.0001 32 58.0001C46.3595 58.0001 58.0001 46.3595 58.0001 32.0001ZM60.0001 32.0001C60.0001 47.4641 47.464 60.0001 32 60.0001C16.536 60.0001 3.99997 47.4641 3.99997 32.0001C3.99997 16.5361 16.536 4.00008 32 4.00008C47.464 4.00008 60.0001 16.5361 60.0001 32.0001Z" fill="url(#paint1_linear_4422_3303)"/>
<defs>
<linearGradient id="paint0_linear_4422_3303" x1="32.0001" y1="0" x2="32.0001" y2="64" gradientUnits="userSpaceOnUse">
<stop stop-color="#142C57"/>
<stop offset="1" stop-color="#17243C" stop-opacity="0"/>
</linearGradient>
<linearGradient id="paint1_linear_4422_3303" x1="4.99997" y1="32.0012" x2="59.0001" y2="32.0012" gradientUnits="userSpaceOnUse">
<stop stop-color="#7013C5"/>
<stop offset="0.35" stop-color="#7330D7"/>
<stop offset="0.5" stop-color="#7543E3"/>
<stop offset="0.65" stop-color="#F94E6C"/>
<stop offset="0.75" stop-color="#FC9237"/>
<stop offset="0.85" stop-color="#FFD305"/>
<stop offset="1" stop-color="#20BF55"/>
</linearGradient>
</defs>
</svg>
