<svg width="64" height="48" viewBox="0 0 64 48" fill="none" xmlns="http://www.w3.org/2000/svg">
<path d="M4.00195 0C6.21471 0 8.00911 1.78308 8.00488 3.9873V44.0127C8.00488 46.2127 6.21471 48 4.00195 48C1.79364 47.9997 0 46.2168 0 44.0127V3.9873C0 1.78324 1.79364 0.000258182 4.00195 0ZM59.5547 0C61.7673 0.000197048 63.5609 1.7832 63.5566 3.9873V44.0127C63.5566 46.2126 61.7673 47.9998 59.5547 48C57.3462 48 55.5518 46.2169 55.5518 44.0127V3.9873C55.5518 1.78729 57.3419 0 59.5547 0ZM22.5205 8.31934C24.7333 8.31934 26.5234 10.1024 26.5234 12.3066V35.6934C26.5234 37.8933 24.7332 39.6807 22.5205 39.6807C20.3121 39.6806 18.5186 37.8975 18.5186 35.6934V12.3066C18.5186 10.1067 20.3078 8.3194 22.5205 8.31934ZM41.0391 15.0332C43.2476 15.0332 45.042 16.8205 45.042 19.0205V28.8867C45.0419 31.0867 43.2476 32.874 41.0391 32.874C38.8308 32.8738 37.0372 31.0908 37.0371 28.8867V19.0205C37.0371 16.8206 38.8265 15.0334 41.0391 15.0332Z" fill="white"/>
</svg>
