<svg width="261" height="64" viewBox="0 0 261 64" fill="none" xmlns="http://www.w3.org/2000/svg">
<path d="M235.44 12.8483L243.769 26.6978H244.064L252.429 12.8483H260.24L248.588 31.7574L260.425 50.6665H252.484L244.064 36.9094H243.769L235.348 50.6665H227.445L239.392 31.7574L227.592 12.8483H235.44Z" fill="black"/>
<path d="M215.888 12.8483V50.6665H209.204V12.8483H215.888Z" fill="black"/>
<path d="M190.626 51.239C188.829 51.239 187.21 50.919 185.77 50.2788C184.342 49.6263 183.209 48.6661 182.372 47.3981C181.547 46.1301 181.135 44.5667 181.135 42.7078C181.135 41.1074 181.43 39.784 182.021 38.7376C182.612 37.6912 183.418 36.8541 184.44 36.2263C185.462 35.5984 186.613 35.1245 187.893 34.8044C189.186 34.472 190.521 34.2319 191.9 34.0842C193.562 33.9119 194.91 33.758 195.944 33.6226C196.978 33.4748 197.729 33.2532 198.197 32.9578C198.677 32.65 198.917 32.1761 198.917 31.5359V31.4251C198.917 30.034 198.505 28.9568 197.68 28.1936C196.855 27.4303 195.667 27.0487 194.116 27.0487C192.479 27.0487 191.18 27.4057 190.22 28.1197C189.272 28.8337 188.632 29.677 188.299 30.6495L182.058 29.7632C182.55 28.0397 183.363 26.5994 184.495 25.4422C185.628 24.2727 187.013 23.3986 188.65 22.82C190.288 22.2291 192.097 21.9336 194.079 21.9336C195.446 21.9336 196.806 22.0937 198.16 22.4138C199.514 22.7338 200.752 23.2632 201.872 24.0018C202.992 24.7281 203.891 25.7191 204.568 26.9748C205.257 28.2305 205.602 29.8001 205.602 31.6836V50.6666H199.176V46.7703H198.954C198.548 47.5582 197.976 48.2968 197.237 48.9862C196.511 49.6633 195.593 50.2111 194.485 50.6297C193.39 51.0359 192.103 51.239 190.626 51.239ZM192.362 46.3271C193.704 46.3271 194.867 46.0624 195.852 45.5331C196.837 44.9914 197.594 44.2774 198.123 43.391C198.665 42.5047 198.936 41.5383 198.936 40.4919V37.1495C198.727 37.3219 198.369 37.4819 197.865 37.6297C197.372 37.7774 196.818 37.9067 196.203 38.0174C195.587 38.1282 194.978 38.2267 194.375 38.3129C193.771 38.3991 193.248 38.4729 192.805 38.5345C191.808 38.6699 190.915 38.8915 190.128 39.1993C189.34 39.507 188.718 39.9379 188.262 40.4919C187.807 41.0335 187.579 41.7352 187.579 42.597C187.579 43.8281 188.029 44.7575 188.927 45.3853C189.826 46.0132 190.971 46.3271 192.362 46.3271Z" fill="black"/>
<path d="M179.994 22.3028V27.4733H163.688V22.3028H179.994ZM167.714 15.5074H174.398V42.1352C174.398 43.0339 174.534 43.7233 174.805 44.2034C175.088 44.6712 175.457 44.9913 175.913 45.1636C176.368 45.336 176.873 45.4221 177.427 45.4221C177.845 45.4221 178.227 45.3914 178.572 45.3298C178.929 45.2683 179.2 45.2129 179.384 45.1636L180.511 50.3895C180.154 50.5126 179.643 50.648 178.978 50.7957C178.326 50.9435 177.525 51.0296 176.577 51.0542C174.903 51.1035 173.395 50.8511 172.053 50.2971C170.711 49.7309 169.647 48.8568 168.859 47.675C168.083 46.4932 167.701 45.0159 167.714 43.2432V15.5074Z" fill="black"/>
<path d="M150.683 51.2206C147.839 51.2206 145.383 50.6297 143.315 49.4478C141.259 48.2537 139.677 46.5672 138.569 44.3882C137.461 42.1969 136.907 39.6178 136.907 36.651C136.907 33.7334 137.461 31.1727 138.569 28.9692C139.689 26.7532 141.253 25.0298 143.26 23.7987C145.266 22.5553 147.624 21.9336 150.332 21.9336C152.08 21.9336 153.73 22.2168 155.281 22.7831C156.844 23.337 158.223 24.1988 159.417 25.3683C160.624 26.5378 161.572 28.0274 162.261 29.837C162.95 31.6344 163.295 33.7764 163.295 36.2632V38.3129H140.046V33.8072H156.887C156.875 32.5269 156.598 31.3882 156.056 30.391C155.515 29.3816 154.758 28.5875 153.785 28.0089C152.825 27.4303 151.705 27.141 150.424 27.141C149.058 27.141 147.858 27.4734 146.823 28.1382C145.789 28.7906 144.983 29.6524 144.404 30.7234C143.838 31.7821 143.549 32.9455 143.536 34.2135V38.1467C143.536 39.7963 143.838 41.212 144.441 42.3939C145.045 43.5634 145.888 44.4621 146.971 45.0899C148.054 45.7054 149.322 46.0132 150.775 46.0132C151.748 46.0132 152.628 45.8778 153.416 45.6069C154.204 45.3238 154.887 44.9114 155.465 44.3697C156.044 43.8281 156.481 43.1571 156.777 42.3569L163.018 43.0586C162.624 44.7083 161.873 46.1486 160.765 47.3797C159.67 48.5984 158.266 49.5463 156.555 50.2234C154.844 50.8882 152.886 51.2206 150.683 51.2206Z" fill="black"/>
<path d="M94.4165 12.8484H102.8L114.027 40.2518H114.47L125.698 12.8484H134.081V50.6666H127.507V24.685H127.157L116.705 50.5558H111.793L101.341 24.6296H100.99V50.6666H94.4165V12.8484Z" fill="black"/>
<path d="M35.6212 35.6213C37.1958 34.0467 39.7479 34.0467 41.3224 35.6213L62.8195 57.1174C64.3939 58.6919 64.394 61.245 62.8195 62.8195C61.245 64.394 58.6919 64.3939 57.1173 62.8195L35.6212 41.3224C34.0467 39.7479 34.0468 37.1958 35.6212 35.6213ZM22.2707 35.172C23.8452 33.5975 26.3982 33.5976 27.9728 35.172C29.5474 36.7466 29.5474 39.2996 27.9728 40.8742L15.3146 53.5324C13.7401 55.1069 11.187 55.1069 9.61245 53.5324C8.03802 51.9578 8.03794 49.4048 9.61245 47.8302L22.2707 35.172ZM1.18081 1.18083C2.75531 -0.393666 5.3084 -0.393554 6.88296 1.18083L28.3791 22.6779C29.9536 24.2525 29.9536 26.8045 28.3791 28.3791C26.8045 29.9536 24.2524 29.9536 22.6779 28.3791L1.18081 6.88298C-0.393559 5.30842 -0.393649 2.75533 1.18081 1.18083ZM40.5177 16.9259C42.0923 15.3517 44.6444 15.3516 46.2189 16.9259C47.7934 18.5005 47.7934 21.0535 46.2189 22.6281L40.8595 27.9875C39.285 29.562 36.7319 29.562 35.1574 27.9875C33.583 26.4129 33.5829 23.8598 35.1574 22.2853L40.5177 16.9259Z" fill="url(#paint0_linear_4422_2460)"/>
<defs>
<linearGradient id="paint0_linear_4422_2460" x1="6.70366" y1="41.6875" x2="95.8904" y2="7.52989" gradientUnits="userSpaceOnUse">
<stop stop-color="#4400E2"/>
<stop offset="0.4977" stop-color="#F54C6F"/>
<stop offset="1" stop-color="#F94E6C"/>
</linearGradient>
</defs>
</svg>
