<svg width="64" height="64" viewBox="0 0 64 64" fill="none" xmlns="http://www.w3.org/2000/svg">
<path d="M35.6212 35.6213C37.1958 34.0467 39.7479 34.0467 41.3224 35.6213L62.8195 57.1174C64.3939 58.6919 64.394 61.245 62.8195 62.8195C61.245 64.394 58.6919 64.3939 57.1173 62.8195L35.6212 41.3224C34.0467 39.7479 34.0468 37.1958 35.6212 35.6213ZM22.2707 35.172C23.8452 33.5975 26.3982 33.5976 27.9728 35.172C29.5474 36.7466 29.5474 39.2996 27.9728 40.8742L15.3146 53.5324C13.7401 55.1069 11.187 55.1069 9.61245 53.5324C8.03802 51.9578 8.03794 49.4048 9.61245 47.8302L22.2707 35.172ZM1.18081 1.18083C2.75531 -0.393666 5.3084 -0.393554 6.88296 1.18083L28.3791 22.6779C29.9536 24.2525 29.9536 26.8045 28.3791 28.3791C26.8045 29.9536 24.2524 29.9536 22.6779 28.3791L1.18081 6.88298C-0.393559 5.30842 -0.393649 2.75533 1.18081 1.18083ZM40.5177 16.9259C42.0923 15.3517 44.6444 15.3516 46.2189 16.9259C47.7934 18.5005 47.7934 21.0535 46.2189 22.6281L40.8595 27.9875C39.285 29.562 36.7319 29.562 35.1574 27.9875C33.583 26.4129 33.5829 23.8598 35.1574 22.2853L40.5177 16.9259Z" fill="black"/>
</svg>
